<?xml version="1.0" encoding="utf-8"?>
<!-- Generator: Adobe Illustrator 22.0.0, SVG Export Plug-In . SVG Version: 6.00 Build 0)  -->
<svg version="1.1" id="Layer_1" xmlns="http://www.w3.org/2000/svg" xmlns:xlink="http://www.w3.org/1999/xlink" x="0px" y="0px"
	 viewBox="0 0 60 55" style="enable-background:new 0 0 60 55;" xml:space="preserve">
<style type="text/css">
	.st0{fill:#0B4B8A;stroke:#0B4B8A;stroke-width:1.5;stroke-miterlimit:10;}
</style>
<g>
	<path class="st0" d="M35.8,29.9c-2,1.7-4.6,2.7-7.3,2.7c-2.7,0-5.3-1-7.3-2.7c-0.4-0.3-1-0.3-1.3,0.1c-0.3,0.4-0.3,1,0.1,1.3
		c2.4,2,5.4,3.1,8.5,3.1s6.1-1.1,8.5-3.1c0.4-0.3,0.5-0.9,0.1-1.3C36.8,29.7,36.2,29.6,35.8,29.9z"/>
	<path class="st0" d="M50.8,5.7c0-3.2-2.6-5.7-5.7-5.7c-3.2,0-5.7,2.6-5.7,5.7c0,0.1,0,0.3,0,0.5c-3.1-2.1-6.8-3.3-10.8-3.3
		c-10.7,0-19.4,8.7-19.4,19.4c0,1.4,0.2,2.9,0.5,4.3c1.1,4.7,3.8,8.7,7.4,11.4c-1.4,1.5-2.6,3.4-3.5,5.7c-2,5-2.1,10.1-2.1,10.3
		c0,0.5,0.4,1,0.9,1l0,0c0.5,0,0.9-0.4,0.9-0.9c0,0,0.1-5,2-9.7c0.6-1.6,1.4-3,2.3-4.1V54c0,0.5,0.4,0.9,0.9,0.9
		c0.5,0,0.9-0.4,0.9-0.9V39.5c1.1,0.6,2.4,1.1,3.7,1.5V42c0,3.1,2.5,5.6,5.6,5.6s5.6-2.5,5.6-5.6v-1.1c1.2-0.4,2.4-0.9,3.6-1.5V54
		c0,0.5,0.4,0.9,0.9,0.9s0.9-0.4,0.9-0.9V40.1c0.9,1.2,1.7,2.6,2.4,4.3c1.8,4.7,2,9.6,2,9.7c0,0.5,0.4,0.9,0.9,0.9l0,0
		c0.5,0,0.9-0.5,0.9-1c0-0.2-0.1-5.3-2.1-10.3c-1-2.4-2.2-4.3-3.6-5.8c4.2-3.1,7-7.9,7.6-13.5l0,0l0,0c0.1-0.7,0.1-1.4,0.1-2.1
		c0-4-1.2-7.8-3.4-10.9c0.1,0,0.3,0,0.4,0C48.2,11.5,50.8,8.9,50.8,5.7z M45.1,1.9c2.1,0,3.9,1.7,3.9,3.9s-1.7,3.9-3.9,3.9
		c-2.1,0-3.9-1.7-3.9-3.9S42.9,1.9,45.1,1.9z M32.5,42c0,2-1.7,3.7-3.7,3.7s-3.7-1.7-3.7-3.7v-0.6c1.1,0.2,2.3,0.3,3.5,0.3
		c1.3,0,2.6-0.1,3.9-0.4L32.5,42L32.5,42z M28.6,39.9c-8,0-14.8-5.2-16.9-12.8c0.3-0.1,0.6-0.2,0.8-0.3c0.4-0.1,0.9-0.3,1.3-0.4
		c0.4-0.1,0.8-0.3,1.2-0.4s0.8-0.3,1.2-0.4c0.4-0.1,0.8-0.3,1.1-0.4c0.4-0.1,0.8-0.3,1.2-0.5c0.4-0.1,0.7-0.3,1.1-0.5
		c0.4-0.1,0.8-0.3,1.1-0.5c0.4-0.1,0.7-0.3,1.1-0.5c0.4-0.2,0.7-0.3,1.1-0.5c0.3-0.1,0.6-0.3,1-0.5c0.4-0.2,0.7-0.3,1.1-0.5
		c0.3-0.1,0.6-0.3,0.9-0.5c0.3-0.2,0.6-0.3,1-0.5c0.3-0.1,0.6-0.3,0.9-0.5c0.3-0.2,0.6-0.3,0.9-0.5c0.3-0.1,0.6-0.3,0.8-0.5
		c0.3-0.2,0.6-0.3,0.9-0.5c0.2-0.1,0.5-0.3,0.7-0.4c0.3-0.1,0.6-0.3,0.8-0.5c0.2-0.1,0.4-0.3,0.6-0.4c0.2-0.1,0.5-0.3,0.7-0.5
		c0.2-0.1,0.4-0.2,0.6-0.4c0.2-0.1,0.5-0.3,0.7-0.4c0.2-0.1,0.3-0.2,0.5-0.3c0.2-0.1,0.4-0.2,0.6-0.4s0.3-0.2,0.5-0.3
		c0.1-0.1,0.3-0.2,0.4-0.3c0.1-0.1,0.2-0.2,0.4-0.3c0.1-0.1,0.3-0.2,0.4-0.3c0.2-0.1,0.4-0.3,0.6-0.4c0.4,0.4,0.8,0.7,1.2,1.1
		c0.2,0.2,0.3,0.3,0.5,0.5c0.2,0.2,0.5,0.5,0.7,0.7c0.2,0.2,0.4,0.4,0.6,0.6c0.2,0.2,0.4,0.5,0.6,0.7c0.2,0.2,0.4,0.5,0.5,0.6
		c0.2,0.2,0.4,0.5,0.6,0.7c0.2,0.2,0.3,0.4,0.5,0.6c0.2,0.2,0.4,0.5,0.6,0.7c0.1,0.2,0.3,0.4,0.5,0.6c0.2,0.2,0.4,0.5,0.5,0.7
		c0.1,0.2,0.3,0.4,0.4,0.6c0.2,0.3,0.3,0.5,0.5,0.7c0.1,0.2,0.2,0.4,0.3,0.5c0.1,0.2,0.2,0.4,0.4,0.6C44.9,33.3,37.5,39.9,28.6,39.9
		z M46,21.1c-0.1-0.1-0.1-0.2-0.2-0.4c-0.2-0.4-0.5-0.7-0.7-1.1c-0.1-0.1-0.2-0.3-0.3-0.4c-0.3-0.4-0.6-0.7-0.8-1.1
		c-0.1-0.1-0.2-0.2-0.3-0.3c-0.4-0.5-0.7-0.9-1.1-1.4c-0.1-0.1-0.1-0.2-0.2-0.3c-0.3-0.4-0.6-0.7-0.9-1.1c-0.1-0.1-0.3-0.3-0.4-0.4
		c-0.3-0.3-0.6-0.6-0.9-0.9c-0.1-0.1-0.2-0.2-0.4-0.4c-0.4-0.4-0.8-0.7-1.3-1.1c-0.3-0.3-0.8-0.3-1.1,0c0,0,0,0-0.1,0.1
		c0,0-0.1,0.1-0.1,0.1c-0.1,0-0.1,0.1-0.2,0.2c0,0-0.1,0.1-0.2,0.2c-0.1,0.1-0.2,0.2-0.4,0.3c-0.1,0-0.2,0.1-0.3,0.2
		c-0.2,0.1-0.4,0.2-0.6,0.4c-0.1,0.1-0.3,0.2-0.4,0.3c-0.2,0.1-0.4,0.3-0.7,0.5c-0.1,0.1-0.3,0.2-0.5,0.3c-0.3,0.2-0.5,0.3-0.8,0.5
		c-0.2,0.1-0.4,0.2-0.6,0.4c-0.3,0.2-0.6,0.4-0.9,0.6c-0.2,0.1-0.5,0.3-0.6,0.4c-0.3,0.2-0.6,0.4-1,0.6c-0.2,0.1-0.5,0.3-0.7,0.4
		c-0.4,0.2-0.7,0.4-1.1,0.6c-0.3,0.1-0.6,0.3-0.8,0.5c-0.4,0.2-0.8,0.4-1.2,0.6c-0.3,0.1-0.6,0.3-0.9,0.5c-0.4,0.2-0.8,0.4-1.2,0.6
		c-0.3,0.1-0.6,0.3-1,0.5c-0.5,0.2-0.9,0.4-1.3,0.6c-0.4,0.1-0.7,0.3-1.1,0.5c-0.5,0.2-0.9,0.4-1.4,0.6c-0.4,0.1-0.7,0.3-1.1,0.5
		c-0.5,0.2-1,0.4-1.5,0.6c-0.4,0.1-0.8,0.3-1.2,0.4c-0.5,0.2-1,0.4-1.5,0.5c-0.4,0.1-0.9,0.3-1.3,0.4c-0.4,0.1-0.7,0.2-1.1,0.3
		c-0.2-1-0.3-2-0.3-2.9c0-9.7,7.9-17.6,17.6-17.6c9.3,0,17,7.3,17.5,16.5C46.1,21.2,46,21.2,46,21.1z"/>
</g>
</svg>
