<?xml version="1.0" encoding="utf-8"?>
<!-- Generator: Adobe Illustrator 22.0.0, SVG Export Plug-In . SVG Version: 6.00 Build 0)  -->
<svg version="1.1" id="Layer_1" xmlns="http://www.w3.org/2000/svg" xmlns:xlink="http://www.w3.org/1999/xlink" x="0px" y="0px"
	 viewBox="0 0 101.8 121.4" style="enable-background:new 0 0 101.8 121.4;" xml:space="preserve">
<style type="text/css">
	.st0{fill:#FFFFFF;stroke:#FFFFFF;stroke-width:1.5;stroke-miterlimit:10;}
</style>
<g>
	<path class="st0" d="M91.4,66.4C82.3,50.7,80.1,34,79.7,28.6c6-0.8,12.3-1.7,17.7-2.7c1-0.2,1.7-1,1.7-2v-9.2c0-0.9-0.7-1.8-1.6-2
		c-1.2-0.3-29.8-6.9-46-6.9c-0.5,0-1.1,0.2-1.5,0.6c-0.4,0.4-0.6,0.9-0.6,1.5l0.1,4.7H44c-2.3,0-4.2,1.9-4.2,4.2V25
		c0,2.3,1.9,4.2,4.2,4.2h2.5c0,5.1-0.8,16.5-7.9,29.6c-0.7,1.4-0.7,3.1,0.2,4.4c0.8,1.1,2.1,1.8,3.5,1.8c0.1,0,0.5,0,0.5,0
		c2.3-0.3,13.9-3.4,18.4-34.3c1.3-0.1,2.7-0.3,4.1-0.4c-0.6,5.7-2.8,21-11.6,36.1c-11.6,19.9-9.6,51.1-9.5,52.4c0.1,1.1,1,1.9,2,1.9
		h52.7c1.1,0,2-0.8,2-1.9C101,117.5,103,86.3,91.4,66.4z M59.2,26.8c-0.9,0.1-1.7,0.8-1.8,1.8c-4,30.6-14.6,32.3-15.2,32.2
		c8.6-16.1,8.5-29.9,8.3-33.7c-0.1-1.1-1-1.9-2-1.9L43.8,25l0.1-8.4h7.6c0.5,0,1.1-0.2,1.5-0.6c0.4-0.4,0.6-0.9,0.6-1.5l-0.1-4.7
		C67.3,10.3,89,15,94.9,16.3v5.8C82.9,24.3,67.5,26,59.2,26.8z M96.9,116.6H48.2c-0.2-7-0.3-32,9.1-48.2
		C66.9,51.8,69,35.1,69.5,29.8c2-0.2,4-0.5,6.1-0.7c0.5,5.9,2.7,23,12.3,39.3C97.2,84.5,97.2,109.6,96.9,116.6z"/>
	<path class="st0" d="M31.3,18.9h-4.1c-1.1,0-2,0.9-2,2c0,1.1,0.9,2,2,2h4.1c1.1,0,2-0.9,2-2C33.3,19.8,32.4,18.9,31.3,18.9z"/>
	<path class="st0" d="M21.1,20.9c0-1.1-0.9-2-2-2H15c-1.1,0-2,0.9-2,2c0,1.1,0.9,2,2,2h4.1C20.2,22.9,21.1,22,21.1,20.9z"/>
	<path class="st0" d="M8.9,20.9c0-1.1-0.9-2-2-2H2.8c-1.1,0-2,0.9-2,2c0,1.1,0.9,2,2,2h4.1C8,22.9,8.9,22,8.9,20.9z"/>
	<path class="st0" d="M19.7,33.8l-3.5,2c-1,0.6-1.3,1.8-0.8,2.8c0.4,0.7,1.1,1,1.8,1c0.3,0,0.7-0.1,1-0.3l3.5-2
		c1-0.6,1.3-1.8,0.8-2.8C21.9,33.5,20.6,33.2,19.7,33.8z"/>
	<path class="st0" d="M9.1,39.8l-3.5,2c-1,0.6-1.3,1.8-0.8,2.8c0.4,0.7,1.1,1,1.8,1c0.3,0,0.7-0.1,1-0.3l3.5-2
		c1-0.6,1.3-1.8,0.8-2.8C11.3,39.6,10.1,39.3,9.1,39.8z"/>
	<path class="st0" d="M30.3,27.7l-3.5,2c-1,0.6-1.3,1.8-0.8,2.8c0.4,0.7,1.1,1,1.8,1c0.3,0,0.7-0.1,1-0.3l3.5-2
		c1-0.6,1.3-1.8,0.8-2.8C32.5,27.5,31.2,27.1,30.3,27.7z"/>
	<path class="st0" d="M36,12l-3.7-1.6c-1-0.4-2.2,0-2.7,1.1c-0.4,1,0,2.2,1.1,2.7l3.7,1.6c0.3,0.1,0.5,0.2,0.8,0.2
		c0.8,0,1.5-0.5,1.9-1.2C37.6,13.6,37.1,12.4,36,12z"/>
	<path class="st0" d="M24.8,7.3L21,5.7c-1-0.4-2.2,0-2.7,1.1c-0.4,1,0,2.2,1.1,2.7l3.7,1.6c0.3,0.1,0.5,0.2,0.8,0.2
		c0.8,0,1.5-0.5,1.9-1.2C26.3,8.9,25.8,7.7,24.8,7.3z"/>
	<path class="st0" d="M14.6,5.2c0.4-1,0-2.2-1.1-2.7L9.8,0.9C8.7,0.5,7.6,1,7.1,2c-0.4,1,0,2.2,1.1,2.7L12,6.2
		c0.3,0.1,0.5,0.2,0.8,0.2C13.5,6.4,14.3,5.9,14.6,5.2z"/>
	<path class="st0" d="M86,85H59.3c-1.1,0-2,0.9-2,2v18.8c0,1.1,0.9,2,2,2H86c1.1,0,2-0.9,2-2V87C88,85.9,87.1,85,86,85z M84,103.8
		H61.4V89H84V103.8z"/>
</g>
</svg>
