<?xml version="1.0" encoding="utf-8"?>
<!-- Generator: Adobe Illustrator 22.0.0, SVG Export Plug-In . SVG Version: 6.00 Build 0)  -->
<svg version="1.1" id="Layer_1" xmlns="http://www.w3.org/2000/svg" xmlns:xlink="http://www.w3.org/1999/xlink" x="0px" y="0px"
	 viewBox="0 3 17 14" style="enable-background:new 0 3 17 14;" xml:space="preserve">
<style type="text/css">
	.st0{fill:#FFFFFF;}
</style>
<path class="st0" d="M17,3H6v3H3.1l-1.2,4H0v5h2c0,0,0,0,0,0c0,1.1,0.9,2,2,2s2-0.9,2-2c0,0,0,0,0,0h5c0,0,0,0,0,0c0,1.1,0.9,2,2,2
	s2-0.9,2-2c0,0,0,0,0,0h2V3z M3.9,7H6v3H3L3.9,7z M4,16c-0.6,0-1-0.4-1-1s0.4-1,1-1s1,0.4,1,1S4.6,16,4,16z M13,16c-0.6,0-1-0.4-1-1
	s0.4-1,1-1s1,0.4,1,1S13.6,16,13,16z M16,14h-1.3c-0.4-0.6-1-1-1.7-1s-1.4,0.4-1.7,1H5.7c-0.3-0.6-1-1-1.7-1s-1.4,0.4-1.7,1H1v-3h6
	V4h9V14z"/>
</svg>
