<?xml version="1.0" encoding="utf-8"?>
<!-- Generator: Adobe Illustrator 22.0.0, SVG Export Plug-In . SVG Version: 6.00 Build 0)  -->
<svg version="1.1" id="Layer_1" xmlns="http://www.w3.org/2000/svg" xmlns:xlink="http://www.w3.org/1999/xlink" x="0px" y="0px"
	 viewBox="0 0 17 17" style="enable-background:new 0 0 17 17;" xml:space="preserve">
<style type="text/css">
	.st0{fill:#FFFFFF;}
</style>
<path class="st0" d="M17,1h-2.3c0-0.2,0-0.3,0-0.5V0H2.3v0.5c0,0.2,0,0.3,0,0.5H0l0,0.5c0,1.1,0.1,2.2,0.2,3.3
	c0.4,2.9,1.3,6.3,2.8,7.1C3.2,12,3.4,12,3.6,12c0.2,0,0.5-0.1,0.7-0.2l0.2-0.1C5.3,13,6.5,13.8,8,14v2H5v1h7v-1H9v-2
	c1.4-0.1,2.6-0.9,3.5-2.3l0.2,0.2c0.2,0.1,0.4,0.2,0.7,0.2c0.2,0,0.4,0,0.6-0.1c1.5-0.7,2.4-4.2,2.8-7.1C16.9,3.7,17,2.6,17,1.5
	L17,1z M4,10.8L3.8,11c-0.1,0.1-0.2,0.1-0.3,0c-0.8-0.4-1.8-2.7-2.2-6.3C1.1,3.8,1,2.9,1,2h1.3c0.1,2.9,0.5,6.5,1.8,9L4,10.8z
	 M8.5,13C4,13,3.3,5,3.3,1h10.5C13.7,5.7,12.9,13,8.5,13z M15.8,4.7c-0.4,3.6-1.5,5.9-2.2,6.3c-0.1,0.1-0.2,0.1-0.3,0L13,10.8
	L12.9,11c1.1-2,1.7-5.1,1.8-9H16C16,2.9,15.9,3.8,15.8,4.7z"/>
</svg>
