<?xml version="1.0" encoding="utf-8"?>
<!-- Generator: Adobe Illustrator 22.0.0, SVG Export Plug-In . SVG Version: 6.00 Build 0)  -->
<svg version="1.1" id="Layer_1" xmlns="http://www.w3.org/2000/svg" xmlns:xlink="http://www.w3.org/1999/xlink" x="0px" y="0px"
	 viewBox="0 0 60 55" style="enable-background:new 0 0 60 55;" xml:space="preserve">
<style type="text/css">
	.st0{fill:#0F4C8A;stroke:#0F4C8A;stroke-width:1.5;stroke-miterlimit:10;}
</style>
<g>
	<path class="st0" d="M48.6,30.1c-4.2-7.2-5.2-14.9-5.4-17.3c2.8-0.4,5.6-0.8,8.1-1.2c0.5-0.1,0.8-0.5,0.8-0.9V6.4
		c0-0.4-0.3-0.8-0.7-0.9c-0.6-0.1-13.7-3.2-21.1-3.2c-0.2,0-0.5,0.1-0.7,0.3c-0.2,0.2-0.3,0.4-0.3,0.7l0,2.2h-2.5
		c-1.1,0-1.9,0.9-1.9,1.9v3.8c0,1.1,0.9,1.9,1.9,1.9H28c0,2.3-0.4,7.6-3.6,13.6c-0.3,0.6-0.3,1.4,0.1,2c0.4,0.5,1,0.8,1.6,0.8
		c0,0,0.2,0,0.2,0c1.1-0.1,6.4-1.6,8.4-15.7c0.6,0,1.2-0.1,1.9-0.2c-0.3,2.6-1.3,9.6-5.3,16.6c-5.3,9.1-4.4,23.4-4.4,24
		c0,0.5,0.5,0.9,0.9,0.9H52c0.5,0,0.9-0.4,0.9-0.9C53,53.6,53.9,39.3,48.6,30.1z M33.8,12c-0.4,0-0.8,0.4-0.8,0.8
		c-1.8,14-6.7,14.8-7,14.8c3.9-7.4,3.9-13.7,3.8-15.5c0-0.5-0.5-0.9-0.9-0.9l-2.2-0.1l0-3.9h3.5c0.2,0,0.5-0.1,0.7-0.3
		c0.2-0.2,0.3-0.4,0.3-0.7l0-2.2c6.3,0.2,16.3,2.4,19,3v2.7C44.7,10.8,37.6,11.6,33.8,12z M51.1,53.2H28.8
		C28.7,49.9,28.6,38.5,33,31c4.4-7.6,5.4-15.3,5.6-17.7c0.9-0.1,1.8-0.2,2.8-0.3c0.2,2.7,1.2,10.5,5.6,18
		C51.3,38.4,51.3,49.9,51.1,53.2z"/>
	<path class="st0" d="M21,8.3h-1.9c-0.5,0-0.9,0.4-0.9,0.9s0.4,0.9,0.9,0.9H21c0.5,0,0.9-0.4,0.9-0.9S21.5,8.3,21,8.3z"/>
	<path class="st0" d="M16.4,9.3c0-0.5-0.4-0.9-0.9-0.9h-1.9c-0.5,0-0.9,0.4-0.9,0.9s0.4,0.9,0.9,0.9h1.9
		C15.9,10.2,16.4,9.8,16.4,9.3z"/>
	<path class="st0" d="M10.8,9.3c0-0.5-0.4-0.9-0.9-0.9H8C7.5,8.3,7,8.8,7,9.3s0.4,0.9,0.9,0.9h1.9C10.3,10.2,10.8,9.8,10.8,9.3z"/>
	<path class="st0" d="M15.7,15.2l-1.6,0.9c-0.5,0.3-0.6,0.8-0.4,1.3c0.2,0.3,0.5,0.5,0.8,0.5c0.1,0,0.3,0,0.5-0.1l1.6-0.9
		c0.5-0.3,0.6-0.8,0.4-1.3C16.7,15,16.1,14.9,15.7,15.2z"/>
	<path class="st0" d="M10.9,17.9l-1.6,0.9c-0.5,0.3-0.6,0.8-0.4,1.3c0.2,0.3,0.5,0.5,0.8,0.5c0.1,0,0.3,0,0.5-0.1l1.6-0.9
		c0.5-0.3,0.6-0.8,0.4-1.3C11.9,17.8,11.3,17.7,10.9,17.9z"/>
	<path class="st0" d="M20.6,12.4L19,13.3c-0.5,0.3-0.6,0.8-0.4,1.3c0.2,0.3,0.5,0.5,0.8,0.5c0.1,0,0.3,0,0.5-0.1l1.6-0.9
		c0.5-0.3,0.6-0.8,0.4-1.3C21.6,12.3,21,12.1,20.6,12.4z"/>
	<path class="st0" d="M23.2,5.2l-1.7-0.7c-0.5-0.2-1,0-1.2,0.5c-0.2,0.5,0,1,0.5,1.2l1.7,0.7C22.6,7,22.7,7,22.8,7
		c0.4,0,0.7-0.2,0.9-0.6C23.9,5.9,23.7,5.4,23.2,5.2z"/>
	<path class="st0" d="M18.1,3l-1.7-0.7c-0.5-0.2-1,0-1.2,0.5c-0.2,0.5,0,1,0.5,1.2l1.7,0.7c0.1,0,0.2,0.1,0.4,0.1
		c0.4,0,0.7-0.2,0.9-0.6C18.7,3.8,18.5,3.2,18.1,3z"/>
	<path class="st0" d="M13.4,2.1c0.2-0.5,0-1-0.5-1.2l-1.7-0.7c-0.5-0.2-1,0-1.2,0.5c-0.2,0.5,0,1,0.5,1.2l1.7,0.7
		c0.1,0,0.2,0.1,0.4,0.1C12.9,2.6,13.2,2.4,13.4,2.1z"/>
	<path class="st0" d="M46.1,38.7H33.9c-0.5,0-0.9,0.4-0.9,0.9v8.6c0,0.5,0.4,0.9,0.9,0.9h12.2c0.5,0,0.9-0.4,0.9-0.9v-8.6
		C47,39.1,46.6,38.7,46.1,38.7z M45.2,47.3H34.8v-6.8h10.4V47.3z"/>
</g>
</svg>
