<?xml version="1.0" encoding="utf-8"?>
<!-- Generator: Adobe Illustrator 22.0.0, SVG Export Plug-In . SVG Version: 6.00 Build 0)  -->
<svg version="1.1" id="Capa_1" xmlns="http://www.w3.org/2000/svg" xmlns:xlink="http://www.w3.org/1999/xlink" x="0px" y="0px"
	 viewBox="0 193.6 595.3 454.6" style="enable-background:new 0 193.6 595.3 454.6;" xml:space="preserve">
<style type="text/css">
	.st0{fill:#FFFFFF;}
</style>
<g>
	<path class="st0" d="M0,648.3V357c0-90.1,73.3-163.4,163.4-163.4h268.5c90.1,0,163.4,73.3,163.4,163.4v50.2
		c0,90.1-73.3,163.4-163.4,163.4H167.2L0,648.3z M163.4,230c-70,0-127,57-127,127v234.2l122.7-57h272.8c70,0,127-57,127-127V357
		c0-70-57-127-127-127L163.4,230L163.4,230z M175.4,354.2c19.1,0,34.6,15.5,34.6,34.6s-15.5,34.6-34.6,34.6s-34.6-15.5-34.6-34.6
		S156.3,354.2,175.4,354.2z M419.9,354.2c19.1,0,34.6,15.5,34.6,34.6s-15.5,34.6-34.6,34.6s-34.6-15.5-34.6-34.6
		S400.7,354.2,419.9,354.2z M297.6,354.2c19.1,0,34.6,15.5,34.6,34.6s-15.5,34.6-34.6,34.6c-19.1,0-34.6-15.5-34.6-34.6
		S278.5,354.2,297.6,354.2z"/>
</g>
</svg>
