<?xml version="1.0" encoding="utf-8"?>
<!-- Generator: Adobe Illustrator 22.0.0, SVG Export Plug-In . SVG Version: 6.00 Build 0)  -->
<svg version="1.1" id="Layer_1" xmlns="http://www.w3.org/2000/svg" xmlns:xlink="http://www.w3.org/1999/xlink" x="0px" y="0px"
	 viewBox="0.2 0 16.8 16.8" style="enable-background:new 0.2 0 16.8 16.8;" xml:space="preserve">
<style type="text/css">
	.st0{fill:#FFFFFF;}
</style>
<path class="st0" d="M13,8h1c0,2.5-2,4.5-4.5,4.5S5,10.5,5,8h1c0,1.9,1.6,3.5,3.5,3.5S13,9.9,13,8z M7.5,6.5c0.6,0,1-0.4,1-1
	s-0.4-1-1-1s-1,0.4-1,1S6.9,6.5,7.5,6.5z M11.5,6.5c0.6,0,1-0.4,1-1s-0.4-1-1-1s-1,0.4-1,1S10.9,6.5,11.5,6.5z M17,7.5
	c0,4.1-3.4,7.5-7.5,7.5c-1.3,0-2.6-0.4-3.8-1l-5.5,2.8L3,11.3c-0.7-1.2-1-2.5-1-3.8C2,3.4,5.4,0,9.5,0S17,3.4,17,7.5z M16,7.5
	C16,3.9,13.1,1,9.5,1S3,3.9,3,7.5C3,8.7,3.4,10,4,11l0.2,0.2l-1.7,3.2l3.2-1.7L6,13c1.1,0.7,2.3,1,3.5,1C13.1,14,16,11.1,16,7.5z"/>
</svg>
