<?xml version="1.0" encoding="utf-8"?>
<!-- Generator: Adobe Illustrator 22.0.0, SVG Export Plug-In . SVG Version: 6.00 Build 0)  -->
<svg version="1.1" id="Capa_1" xmlns="http://www.w3.org/2000/svg" xmlns:xlink="http://www.w3.org/1999/xlink" x="0px" y="0px"
	 viewBox="12 123.3 571.2 595.3" style="enable-background:new 12 123.3 571.2 595.3;" xml:space="preserve">
<style type="text/css">
	.st0{fill:#85A5C5;}
</style>
<g>
	<g>
		<path class="st0" d="M555.7,428.7c-2.4-4.9-2.4-10.5,0-15.4l22.2-45.4c12.4-25.3,2.6-55.4-22.3-68.6l-44.7-23.7
			c-4.8-2.6-8.1-7.1-9.1-12.5l-8.7-49.8c-4.9-27.7-30.5-46.4-58.4-42.4l-50.1,7.1c-5.4,0.8-10.7-1-14.7-4.8L333.7,138
			c-20.2-19.6-51.9-19.6-72.2,0l-36.3,35.2c-3.9,3.8-9.3,5.5-14.7,4.8l-50.1-7.1c-27.9-3.9-53.5,14.7-58.4,42.4L93.4,263
			c-0.9,5.4-4.2,9.9-9.1,12.5l-44.7,23.7C14.8,312.4,5,342.5,17.4,367.8l22.2,45.4c2.4,4.9,2.4,10.5,0,15.4l-22.2,45.4
			c-12.4,25.3-2.6,55.4,22.3,68.6l44.7,23.7c4.8,2.6,8.1,7.1,9.1,12.5l8.7,49.8c4.4,25.2,26.1,42.9,50.9,42.9c2.4,0,4.9-0.2,7.4-0.5
			l50.1-7.1c5.4-0.8,10.7,1,14.7,4.8l36.3,35.1c10.1,9.8,23.1,14.7,36.1,14.7c13,0,26-4.9,36.1-14.7l36.3-35.1
			c3.9-3.8,9.3-5.5,14.7-4.8l50.1,7.1c27.9,3.9,53.5-14.7,58.4-42.4l8.7-49.8c0.9-5.4,4.2-9.9,9.1-12.5l44.7-23.7
			c24.9-13.2,34.7-43.3,22.3-68.6L555.7,428.7z M539.5,512.4l-44.7,23.7c-14.2,7.6-24,21-26.8,36.9l-8.7,49.8
			c-1.6,9.4-10.3,15.7-19.7,14.3l-50.1-7.1c-16-2.3-31.8,2.9-43.3,14.1l-36.3,35.1c-6.8,6.6-17.6,6.6-24.4,0l-36.3-35.1
			c-9.8-9.5-22.6-14.6-36-14.6c-2.4,0-4.9,0.2-7.4,0.5l-50.1,7.1c-9.4,1.3-18.1-5-19.7-14.3l-8.7-49.8
			c-2.8-15.9-12.5-29.3-26.8-36.9l-44.7-23.7c-8.4-4.5-11.7-14.7-7.5-23.2l22.2-45.4c7.1-14.5,7.1-31.1,0-45.6l-22.2-45.4
			c-4.2-8.6-0.9-18.8,7.5-23.2l44.7-23.7c14.2-7.6,24-21,26.8-36.9l8.7-49.8c1.6-9.4,10.3-15.7,19.7-14.3l50.1,7.1
			c16,2.3,31.8-2.9,43.3-14.1l36.3-35.1c6.8-6.6,17.6-6.6,24.4,0l36.3,35.1c11.6,11.2,27.4,16.3,43.3,14.1l50.1-7.1
			c9.4-1.3,18.1,5,19.7,14.3l8.7,49.8c2.8,15.9,12.5,29.3,26.8,36.9l44.7,23.7c8.4,4.5,11.7,14.7,7.5,23.2l-22.2,45.4
			c-7.1,14.5-7.1,31.1,0,45.6l22.2,45.4C551.2,497.7,547.9,507.9,539.5,512.4z"/>
	</g>
</g>
<g>
	<g>
		<path class="st0" d="M423.1,295.5c-6.7-6.7-17.6-6.7-24.3,0L172.2,522.1c-6.7,6.7-6.7,17.6,0,24.3c3.4,3.4,7.7,5,12.1,5
			c4.4,0,8.8-1.7,12.1-5l226.6-226.6C429.8,313.1,429.8,302.2,423.1,295.5z"/>
	</g>
</g>
<g>
	<g>
		<path class="st0" d="M229,266.4c-34.7,0-62.9,28.2-62.9,62.9s28.2,62.9,62.9,62.9s62.9-28.2,62.9-62.9S263.7,266.4,229,266.4z
			 M229,358c-15.8,0-28.6-12.8-28.6-28.6c0-15.8,12.8-28.6,28.6-28.6s28.6,12.8,28.6,28.6C257.6,345.2,244.7,358,229,358z"/>
	</g>
</g>
<g>
	<g>
		<path class="st0" d="M366.3,449.6c-34.7,0-62.9,28.2-62.9,62.9s28.2,62.9,62.9,62.9s62.9-28.2,62.9-62.9S401,449.6,366.3,449.6z
			 M366.3,541.1c-15.8,0-28.6-12.8-28.6-28.6c0-15.8,12.8-28.6,28.6-28.6c15.8,0,28.6,12.8,28.6,28.6
			C394.9,528.3,382.1,541.1,366.3,541.1z"/>
	</g>
</g>
</svg>
