<?xml version="1.0" encoding="utf-8"?>
<!-- Generator: Adobe Illustrator 22.0.0, SVG Export Plug-In . SVG Version: 6.00 Build 0)  -->
<svg version="1.1" id="Layer_1" xmlns="http://www.w3.org/2000/svg" xmlns:xlink="http://www.w3.org/1999/xlink" x="0px" y="0px"
	 viewBox="3 0.5 11 16.3" style="enable-background:new 3 0.5 11 16.3;" xml:space="preserve">
<style type="text/css">
	.st0{fill:#00AEEF;}
</style>
<path class="st0" d="M8.5,0.5C5.5,0.5,3,3,3,6c0,4.4,4.9,10.1,5.1,10.3l0.4,0.4l0.4-0.4C9.1,16.1,14,10.4,14,6
	C14,3,11.5,0.5,8.5,0.5z M8.5,15.2C7.4,13.8,4,9.3,4,6c0-2.5,2-4.5,4.5-4.5S13,3.5,13,6C13,9.3,9.6,13.8,8.5,15.2z M8.5,3.1
	c-1.7,0-3,1.3-3,3s1.3,3,3,3s3-1.3,3-3S10.2,3.1,8.5,3.1z M8.5,8.1c-1.1,0-2-0.9-2-2s0.9-2,2-2s2,0.9,2,2S9.6,8.1,8.5,8.1z"/>
</svg>
