<?xml version="1.0" encoding="utf-8"?>
<!-- Generator: Adobe Illustrator 22.0.0, SVG Export Plug-In . SVG Version: 6.00 Build 0)  -->
<svg version="1.1" id="Layer_1" xmlns="http://www.w3.org/2000/svg" xmlns:xlink="http://www.w3.org/1999/xlink" x="0px" y="0px"
	 viewBox="-9 -11 35 39" style="enable-background:new -9 -11 35 39;" xml:space="preserve">
<style type="text/css">
	.st0{fill:#FFFFFF;}
</style>
<path class="st0" d="M8.5-9.8C1.6-9.8-4-4.2-4,2.7c0,9.9,11.2,22.9,11.6,23.5l0.9,1l0.9-1C9.8,25.6,21,12.6,21,2.7
	C21-4.2,15.4-9.8,8.5-9.8z M8.5,23.6C5.9,20.4-1.7,10.2-1.7,2.7C-1.7-3,2.9-7.6,8.5-7.6S18.7-3,18.7,2.7
	C18.7,10.2,11.1,20.4,8.5,23.6z M8.5-3.9C4.7-3.9,1.7-0.8,1.7,3s3.1,6.8,6.8,6.8s6.8-3.1,6.8-6.8S12.3-3.9,8.5-3.9z M8.5,7.5
	C6,7.5,4,5.5,4,3s2-4.5,4.5-4.5S13,0.5,13,3S11,7.5,8.5,7.5z"/>
</svg>
