<?xml version="1.0" encoding="utf-8"?>
<!-- Generator: Adobe Illustrator 22.0.0, SVG Export Plug-In . SVG Version: 6.00 Build 0)  -->
<svg version="1.1" id="Capa_1" xmlns="http://www.w3.org/2000/svg" xmlns:xlink="http://www.w3.org/1999/xlink" x="0px" y="0px"
	 viewBox="277.5 399.9 40.3 42" style="enable-background:new 277.5 399.9 40.3 42;" xml:space="preserve">
<style type="text/css">
	.st0{fill:#999999;}
</style>
<g>
	<g>
		<path class="st0" d="M315.8,421.5c-0.2-0.3-0.2-0.7,0-1.1l1.6-3.2c0.9-1.8,0.2-3.9-1.6-4.8l-3.2-1.7c-0.3-0.2-0.6-0.5-0.6-0.9
			l-0.6-3.5c-0.3-2-2.2-3.3-4.1-3l-3.5,0.5c-0.4,0.1-0.8-0.1-1-0.3l-2.6-2.5c-1.4-1.4-3.7-1.4-5.1,0l-2.6,2.5
			c-0.3,0.3-0.7,0.4-1,0.3l-3.5-0.5c-2-0.3-3.8,1-4.1,3l-0.6,3.5c-0.1,0.4-0.3,0.7-0.6,0.9l-3.2,1.7c-1.8,0.9-2.4,3.1-1.6,4.8
			l1.6,3.2c0.2,0.3,0.2,0.7,0,1.1l-1.6,3.2c-0.9,1.8-0.2,3.9,1.6,4.8l3.2,1.7c0.3,0.2,0.6,0.5,0.6,0.9l0.6,3.5c0.3,1.8,1.8,3,3.6,3
			c0.2,0,0.3,0,0.5,0l3.5-0.5c0.4-0.1,0.8,0.1,1,0.3l2.6,2.5c0.7,0.7,1.6,1,2.5,1c0.9,0,1.8-0.3,2.5-1l2.6-2.5
			c0.3-0.3,0.7-0.4,1-0.3l3.5,0.5c2,0.3,3.8-1,4.1-3l0.6-3.5c0.1-0.4,0.3-0.7,0.6-0.9l3.2-1.7c1.8-0.9,2.4-3.1,1.6-4.8L315.8,421.5z
			 M314.7,427.4l-3.2,1.7c-1,0.5-1.7,1.5-1.9,2.6l-0.6,3.5c-0.1,0.7-0.7,1.1-1.4,1l-3.5-0.5c-1.1-0.2-2.2,0.2-3.1,1l-2.6,2.5
			c-0.5,0.5-1.2,0.5-1.7,0l-2.6-2.5c-0.7-0.7-1.6-1-2.5-1c-0.2,0-0.3,0-0.5,0l-3.5,0.5c-0.7,0.1-1.3-0.4-1.4-1l-0.6-3.5
			c-0.2-1.1-0.9-2.1-1.9-2.6l-3.2-1.7c-0.6-0.3-0.8-1-0.5-1.6l1.6-3.2c0.5-1,0.5-2.2,0-3.2l-1.6-3.2c-0.3-0.6-0.1-1.3,0.5-1.6
			l3.2-1.7c1-0.5,1.7-1.5,1.9-2.6l0.6-3.5c0.1-0.7,0.7-1.1,1.4-1l3.5,0.5c1.1,0.2,2.2-0.2,3.1-1l2.6-2.5c0.5-0.5,1.2-0.5,1.7,0
			l2.6,2.5c0.8,0.8,1.9,1.2,3.1,1l3.5-0.5c0.7-0.1,1.3,0.4,1.4,1l0.6,3.5c0.2,1.1,0.9,2.1,1.9,2.6l3.2,1.7c0.6,0.3,0.8,1,0.5,1.6
			l-1.6,3.2c-0.5,1-0.5,2.2,0,3.2l1.6,3.2C315.5,426.4,315.3,427.1,314.7,427.4z"/>
	</g>
</g>
<g>
	<g>
		<path class="st0" d="M306.5,412.1c-0.5-0.5-1.2-0.5-1.7,0l-16,16c-0.5,0.5-0.5,1.2,0,1.7c0.2,0.2,0.5,0.4,0.9,0.4s0.6-0.1,0.9-0.4
			l16-16C307,413.3,307,412.6,306.5,412.1z"/>
	</g>
</g>
<g>
	<g>
		<path class="st0" d="M292.8,410c-2.4,0-4.4,2-4.4,4.4s2,4.4,4.4,4.4c2.4,0,4.4-2,4.4-4.4S295.2,410,292.8,410z M292.8,416.5
			c-1.1,0-2-0.9-2-2c0-1.1,0.9-2,2-2s2,0.9,2,2C294.8,415.6,293.9,416.5,292.8,416.5z"/>
	</g>
</g>
<g>
	<g>
		<path class="st0" d="M302.5,423c-2.4,0-4.4,2-4.4,4.4s2,4.4,4.4,4.4c2.4,0,4.4-2,4.4-4.4S304.9,423,302.5,423z M302.5,429.4
			c-1.1,0-2-0.9-2-2s0.9-2,2-2c1.1,0,2,0.9,2,2S303.6,429.4,302.5,429.4z"/>
	</g>
</g>
</svg>
