<?xml version="1.0" encoding="utf-8"?>
<!-- Generator: Adobe Illustrator 22.0.0, SVG Export Plug-In . SVG Version: 6.00 Build 0)  -->
<svg version="1.1" id="Layer_1" xmlns="http://www.w3.org/2000/svg" xmlns:xlink="http://www.w3.org/1999/xlink" x="0px" y="0px"
	 viewBox="-9 -11 35 39" style="enable-background:new -9 -11 35 39;" xml:space="preserve">
<style type="text/css">
	.st0{fill:#FFFFFF;}
</style>
<path class="st0" d="M17.1-11.2H-1.1c-1.9,0-3.4,1.5-3.4,3.4v32.1c0,1.9,1.5,3.4,3.4,3.4h18.2c1.9,0,3.4-1.5,3.4-3.4V-7.8
	C20.5-9.7,19-11.2,17.1-11.2z M-1.1-8.9h18.2c0.6,0,1.1,0.5,1.1,1.1v3.4H-2.2v-3.4C-2.2-8.4-1.7-8.9-1.1-8.9z M18.2-2v18.4H-2.2V-2
	H18.2z M17.1,25.5H-1.1c-0.6,0-1.1-0.5-1.1-1.1v-5.7h20.5v5.7C18.2,25,17.7,25.5,17.1,25.5z M9.1,22.1c0,0.6-0.5,1.1-1.1,1.1
	s-1.1-0.5-1.1-1.1s0.5-1.1,1.1-1.1S9.1,21.4,9.1,22.1z"/>
</svg>
