<?xml version="1.0" encoding="utf-8"?>
<!-- Generator: Adobe Illustrator 22.0.0, SVG Export Plug-In . SVG Version: 6.00 Build 0)  -->
<svg version="1.1" id="Layer_1" xmlns="http://www.w3.org/2000/svg" xmlns:xlink="http://www.w3.org/1999/xlink" x="0px" y="0px"
	 viewBox="267.6 393.2 60 55.5" style="enable-background:new 267.6 393.2 60 55.5;" xml:space="preserve">
<style type="text/css">
	.st0{fill:#FFFFFF;}
</style>
<g>
	<g>
		<path class="st0" d="M292.8,438.2c-2.9,0-5.3,2.4-5.3,5.3c0,2.9,2.4,5.3,5.3,5.3c2.9,0,5.3-2.4,5.3-5.3
			C298.1,440.5,295.7,438.2,292.8,438.2z M292.8,445.8c-1.3,0-2.3-1-2.3-2.3c0-1.3,1-2.3,2.3-2.3c1.3,0,2.3,1,2.3,2.3
			C295.1,444.7,294.1,445.8,292.8,445.8z"/>
	</g>
</g>
<g>
	<g>
		<path class="st0" d="M311.3,438.2c-2.9,0-5.3,2.4-5.3,5.3c0,2.9,2.4,5.3,5.3,5.3s5.3-2.4,5.3-5.3
			C316.6,440.5,314.2,438.2,311.3,438.2z M311.3,445.8c-1.3,0-2.3-1-2.3-2.3c0-1.3,1-2.3,2.3-2.3c1.3,0,2.3,1,2.3,2.3
			C313.6,444.7,312.6,445.8,311.3,445.8z"/>
	</g>
</g>
<g>
	<g>
		<path class="st0" d="M312.6,410.4h-21.1c-0.8,0-1.5,0.7-1.5,1.5s0.7,1.5,1.5,1.5h21.1c0.8,0,1.5-0.7,1.5-1.5
			C314.1,411,313.4,410.4,312.6,410.4z"/>
	</g>
</g>
<g>
	<g>
		<path class="st0" d="M311.5,418h-18.8c-0.8,0-1.5,0.7-1.5,1.5s0.7,1.5,1.5,1.5h18.8c0.8,0,1.5-0.7,1.5-1.5
			C312.9,418.7,312.3,418,311.5,418z"/>
	</g>
</g>
<g>
	<g>
		<path class="st0" d="M327,403.8c-0.6-0.7-1.4-1.1-2.3-1.1h-45.9l-0.9-4.5c-0.2-0.9-0.8-1.7-1.7-2.1l-6.5-2.8
			c-0.7-0.3-1.6,0-1.9,0.8c-0.3,0.7,0,1.6,0.8,1.9l6.5,2.8l7.1,34.6c0.3,1.4,1.5,2.4,2.9,2.4h35.3c0.8,0,1.5-0.7,1.5-1.5
			s-0.7-1.5-1.5-1.5H285l-0.9-4.2h36.4c1.4,0,2.6-1,2.9-2.4l4.1-20C327.8,405.4,327.5,404.5,327,403.8z M320.6,425.7h-37l-4.1-20
			l45.3,0L320.6,425.7z"/>
	</g>
</g>
</svg>
