<?xml version="1.0" encoding="utf-8"?>
<!-- Generator: Adobe Illustrator 22.0.0, SVG Export Plug-In . SVG Version: 6.00 Build 0)  -->
<svg version="1.1" id="Isolation_Mode" xmlns="http://www.w3.org/2000/svg" xmlns:xlink="http://www.w3.org/1999/xlink" x="0px"
	 y="0px" viewBox="0 0 64 68.2" style="enable-background:new 0 0 64 68.2;" xml:space="preserve">
<style type="text/css">
	.st0{fill-rule:evenodd;clip-rule:evenodd;fill:#0B4B8A;}
</style>
<path class="st0" d="M40.6,63l-17.2,0c-0.7,1.5-1.7,2.7-3,3.6c-1.5,1-3.2,1.6-5.1,1.6c-1.9,0-3.6-0.6-5-1.5c-1.5-1-2.6-2.4-3.3-4.1
	l-0.6-1.4h1.5h6.7v-3.9H7.8H6.3l0.6-1.4c0.6-1.6,1.7-2.9,3.1-3.9c-2.2-2-4.1-4.3-5.7-6.8l-0.7-1c5-2.3,10.6-4,15.9-5.7
	c2.2-0.8,3.4-2.1,3.8-4.4c0.4-2.2,0-4.8-0.6-7.2c-2.2-4.5-3.2-8.2-3.7-12.5c-0.2-2.5,0-5,0.8-6.9c0.9-2.2,2.5-4.2,4.8-5.6
	C26.4,0.7,29,0,32.1,0c3,0,5.5,0.7,7.4,1.8c2.3,1.3,3.8,3.1,4.8,5.2c0.8,1.7,1,4.1,0.9,6.6c-0.4,5.3-1.5,8.9-3.7,13.3
	c-0.6,2.4-1,4.9-0.6,7.1c0.4,2,1.4,3.6,3.8,4.4c5.4,1.9,10.5,3.3,15.9,5.7c-1.9,2.9-3.9,5.4-6.4,7.8c1.3,1,2.4,2.3,3.1,3.9l0.6,1.4
	h-1.5h-6.7v3.9h6.7h1.5l-0.6,1.4c-0.7,1.7-1.8,3.1-3.3,4.1c-1.4,1-3.2,1.5-5,1.5c-1.9,0-3.7-0.6-5.1-1.6
	C42.3,65.7,41.3,64.4,40.6,63L40.6,63z M11.8,50.9c2.8-1.2,6.1-0.8,8.6,0.9c1.3,0.9,2.4,2.2,3,3.6h17.2c0.7-1.5,1.7-2.7,3-3.6
	c2.5-1.7,5.8-2.1,8.6-0.9c1.9-1.7,3.7-3.7,5.2-5.8c-4.1-1.6-8.3-3-12.5-4.4c-1.6,2.7-3.7,4.6-6.1,5.9c-2.1,1.1-4.4,1.6-6.8,1.6
	c-2.3,0-4.6-0.5-6.8-1.6c-2.4-1.2-4.6-3.2-6.1-5.9C14.9,42,10.7,43.4,6.6,45C8.1,47.2,9.8,49.1,11.8,50.9L11.8,50.9z M42.9,40
	c-2.5-1.2-3.7-3.2-4.1-5.6c-0.2-1.3-0.2-2.8-0.1-4.2c-0.7,0.6-1.4,1.2-2.2,1.6c-1.4,0.8-2.9,1.2-4.5,1.2c-1.6,0-3.1-0.4-4.5-1.2
	c-0.8-0.5-1.6-1.1-2.3-1.8c0.2,1.5,0.2,3,0,4.3c-0.4,2.4-1.6,4.4-4.1,5.6c1.3,2.1,3.1,3.7,5.1,4.7c1.8,0.9,3.8,1.4,5.8,1.4
	c2,0,4-0.5,5.8-1.4C39.8,43.7,41.6,42.1,42.9,40L42.9,40z M42.6,17.8l-8.4-4.5l-0.9,3.2L26.4,13l-3.7,9.4c0.6,1.7,1.4,3.3,2.5,4.7
	c1,1.3,2.1,2.3,3.3,3c1.1,0.6,2.2,1,3.5,1c1.3,0,2.4-0.3,3.5-1c1.2-0.7,2.3-1.7,3.3-3c0.6-0.8,1.2-1.7,1.7-2.7
	C41.4,22.5,42.3,19.8,42.6,17.8L42.6,17.8z M43,15.7c0.1-0.7,0.1-1.4,0.2-2.2c0.1-2.2-0.1-4.3-0.7-5.6c-0.8-1.7-2.1-3.3-3.9-4.3
	c-1.7-0.9-3.8-1.5-6.4-1.5c-2.7,0-4.9,0.6-6.6,1.6c-1.9,1.1-3.2,2.7-4,4.6c-0.6,1.5-0.8,3.7-0.6,6c0.1,1.7,0.4,3.5,0.8,5.1l3.6-9.2
	l6.7,3.5l0.9-3.2L43,15.7L43,15.7z M22.7,60.9l18.6,0H42l0.2,0.7c0.5,1.3,1.4,2.5,2.6,3.3c1.1,0.8,2.5,1.2,4,1.2
	c1.4,0,2.8-0.4,3.9-1.2c0.7-0.5,1.3-1.1,1.8-1.8h-6h-1v-1v-6v-1h1h6c-0.5-0.7-1.1-1.3-1.8-1.8c-2.4-1.6-5.5-1.6-7.9,0.1
	c-1.2,0.8-2.1,2-2.6,3.3L42,57.4h-0.7H22.7l-0.7,0l-0.2-0.7c-0.5-1.3-1.4-2.5-2.6-3.3c-2.4-1.6-5.5-1.7-7.9-0.1
	c-0.7,0.5-1.3,1.1-1.8,1.8h6h1v1v6v1h-1h-6c0.5,0.7,1.1,1.3,1.8,1.8c1.1,0.7,2.4,1.2,3.9,1.2c1.5,0,2.8-0.5,4-1.2
	c1.2-0.8,2.1-2,2.6-3.3l0.2-0.7L22.7,60.9z"/>
</svg>
