<?xml version="1.0" encoding="utf-8"?>
<!-- Generator: Adobe Illustrator 22.0.0, SVG Export Plug-In . SVG Version: 6.00 Build 0)  -->
<svg version="1.1" id="Layer_1" xmlns="http://www.w3.org/2000/svg" xmlns:xlink="http://www.w3.org/1999/xlink" x="0px" y="0px"
	 viewBox="267.6 397.9 60 46.1" style="enable-background:new 267.6 397.9 60 46.1;" xml:space="preserve">
<style type="text/css">
	.st0{fill:#FFFFFF;}
	.st1{fill:#FFFFFF;stroke:#FFFFFF;stroke-miterlimit:10;}
</style>
<g>
	<g>
		<path class="st0" d="M322.6,411.5h-6.1v-8.6c0-2.8-2.2-5-5-5h-38.9c-2.8,0-5,2.2-5,5v22.5c0,2.8,2.2,5,5,5h6.1v8.6
			c0,2.8,2.2,5,5,5h38.9c2.8,0,5-2.2,5-5v-22.5C327.6,413.8,325.4,411.5,322.6,411.5z M270.5,402.9c0-1.2,1-2.1,2.1-2.1h38.9
			c1.2,0,2.1,1,2.1,2.1v2h-43.2V402.9z M278.8,416.5v11h-6.1c-1.2,0-2.1-1-2.1-2.1v-11h8.7C278.9,415,278.8,415.8,278.8,416.5z
			 M270.5,411.5v-3.8h43.2v3.8h-29.9c-0.1,0-0.2,0-0.3,0H270.5z M322.6,441.1h-38.9c-1.2,0-2.1-1-2.1-2.1v-22.5c0-1.1,0.9-2,2-2.1
			h31.5c0.1,0,0.1,0,0.2,0h7.4c1.2,0,2.1,1,2.1,2.1V439h0C324.8,440.2,323.8,441.1,322.6,441.1z"/>
	</g>
</g>
<path class="st1" d="M317.3,427.5c0,3.7-3,6.7-6.7,6.7c-2,0-3.9-0.9-5.2-2.4l0,0l0,0c0,0,0,0-0.1-0.1l0,0l-6.1-7.5
	c-1-1.1-2.3-1.7-3.8-1.7c-2.8,0-5,2.3-5,5s2.3,5,5,5c1.5,0,3-0.7,3.9-1.9l0,0l1.4-1.7l1.3,1.1l-1.4,1.7l0,0
	c-1.3,1.6-3.2,2.5-5.2,2.5c-3.7,0-6.7-3-6.7-6.7c0-3.7,3-6.7,6.7-6.7c1.9,0,3.7,0.8,4.9,2.2l0,0l0.1,0.1l6.2,7.7
	c1,1.2,2.4,1.8,3.9,1.8c2.8,0,5-2.3,5-5s-2.3-5-5-5c-1.4,0-2.8,0.6-3.7,1.7l-1.6,2L304,425l1.6-2l0,0c1.3-1.5,3.1-2.3,5-2.3
	C314.3,420.7,317.3,423.8,317.3,427.5z"/>
</svg>
