<?xml version="1.0" encoding="utf-8"?>
<!-- Generator: Adobe Illustrator 22.0.0, SVG Export Plug-In . SVG Version: 6.00 Build 0)  -->
<svg version="1.1" id="Isolation_Mode" xmlns="http://www.w3.org/2000/svg" xmlns:xlink="http://www.w3.org/1999/xlink" x="0px"
	 y="0px" viewBox="0 0 64 62.5" style="enable-background:new 0 0 64 62.5;" xml:space="preserve">
<style type="text/css">
	.st0{fill-rule:evenodd;clip-rule:evenodd;fill:#0B4B8A;}
</style>
<path class="st0" d="M33.6,38.8L20.7,61.1l-0.3,0.5L20,61.6l-7.6,0.8l-0.8,0.1l-0.3-0.7l-3.1-7L8,54.3l0.4-0.5
	c0.1-0.1,3.4-5.8,6.7-11.5c2.5-4.4,5-8.7,6.1-10.6c-1.7-2.1-2.9-4.6-3.6-7.1c-1.3-4.7-0.8-10,1.8-14.6l0.2-0.4c2.7-4.6,7-7.7,11.8-9
	c4.8-1.3,10.1-0.7,14.8,2l0,0c4.5,2.5,7.8,7,9.1,11.9c1.3,4.8,0.7,10.1-2,14.8c-2.5,4.5-6.9,7.8-11.9,9.1
	C39,39.1,36.3,39.2,33.6,38.8L33.6,38.8z M42.5,9.1c-2.2-1.3-4.9-1.9-7.4-1.5c-2.5,0.3-5,1.4-6.9,3.2l-1,1l1.2,0.7l18.2,10.5
	l1.2,0.7l0.3-1.4c0.6-2.5,0.3-5.2-0.7-7.5C46.5,12.4,44.8,10.4,42.5,9.1L42.5,9.1z M45.6,15.5c-0.8-1.9-2.2-3.5-4.2-4.7
	c-1.9-1.1-4-1.5-6.1-1.3c-1.6,0.2-3.2,0.8-4.6,1.7l15.6,9C46.5,18.7,46.3,17.1,45.6,15.5L45.6,15.5z M22.6,33.3
	c-1.3,2.2-3.5,6.1-5.7,10c-2.8,4.8-5.5,9.5-6.5,11.2l2.6,5.8l6.3-0.7l12.3-21.2c-1.6-0.4-3-1-4.5-1.8l-0.2-0.1
	C25.2,35.6,23.8,34.5,22.6,33.3L22.6,33.3z M53.3,15c-1.2-4.3-4-8.2-8.1-10.6l-0.1-0.1C40.9,2,36.2,1.5,32,2.7
	c-4.5,1.2-8.3,4.1-10.6,8.1c-2.4,4.2-2.9,8.9-1.7,13.2c1.2,4.3,4,8.2,8.1,10.6l0,0c4.2,2.4,8.9,2.9,13.2,1.7
	c4.6-1.2,8.2-4.1,10.6-8.1C54,24.1,54.5,19.3,53.3,15z"/>
</svg>
