<?xml version="1.0" encoding="utf-8"?>
<!-- Generator: Adobe Illustrator 22.0.0, SVG Export Plug-In . SVG Version: 6.00 Build 0)  -->
<svg version="1.1" id="Isolation_Mode" xmlns="http://www.w3.org/2000/svg" xmlns:xlink="http://www.w3.org/1999/xlink" x="0px"
	 y="0px" viewBox="0 0 64 66" style="enable-background:new 0 0 64 66;" xml:space="preserve">
<style type="text/css">
	.st0{fill-rule:evenodd;clip-rule:evenodd;fill:#0B4B8A;}
</style>
<path class="st0" d="M34.6,13.4h-5.6v2.7h-2v-2.7h-4.4v2.7h-2v-2.7h-4.4v2.7h-2v-2.7H9.7v2.7h-2v-2.7H2v42.4h32.5V13.4L34.6,13.4z
	 M51,44.7c-2,0-3.7,1.7-3.7,3.7c0,2,1.7,3.7,3.7,3.7c2.1,0,3.7-1.7,3.7-3.7C54.7,46.3,53,44.7,51,44.7L51,44.7z M51,42.6
	c-2.8,0-5.2,2-5.6,4.7h-8.7V23.3c1.6,0.4,3,1.4,4,2.7l6.5,7.8c1,1.2,2.1,1.6,3.6,1.6c0.5,0,1,0,1.5,0.1c3.4,0.3,5.8,1.7,7.4,3.7
	c1.9,2.3,2.5,5.4,2.3,8.3h-5.4C56.1,44.6,53.7,42.6,51,42.6L51,42.6z M56.6,49.4c-0.5,2.7-2.9,4.7-5.6,4.7c-2.8,0-5.2-2-5.6-4.7
	h-8.7v8.4H0V11.4h7.6V8.2h2v3.2h4.4V8.2h2v3.2h4.4V8.2h2v3.2h4.4V8.2h2v3.2h7.6v9.8c2.3,0.4,4.1,1.7,5.6,3.5l6.5,7.8
	c0.6,0.7,1.2,0.8,2.1,0.8c0.6,0,1.1,0,1.6,0.1c4,0.4,6.9,2,8.8,4.4c2.4,3,3.1,6.9,2.7,10.6l-0.1,0.9H56.6L56.6,49.4z M10.7,27.5
	h15.1h1v1v15.1v1h-1H10.7h-1v-1V28.5v-1H10.7L10.7,27.5z M23.7,29.6l-5.2,8.3l-3.8-5.6L13,33.4l4.7,6.9l0.9,1.3l0.8-1.3l5.5-8.7
	v11.1H11.7V29.6H23.7z"/>
</svg>
