<?xml version="1.0" encoding="utf-8"?>
<!-- Generator: Adobe Illustrator 22.0.0, SVG Export Plug-In . SVG Version: 6.00 Build 0)  -->
<svg version="1.1" id="Layer_1" xmlns="http://www.w3.org/2000/svg" xmlns:xlink="http://www.w3.org/1999/xlink" x="0px" y="0px"
	 viewBox="279.6 402.9 36 36" style="enable-background:new 279.6 402.9 36 36;" xml:space="preserve">
<style type="text/css">
	.st0{fill:#FFFFFF;}
</style>
<g>
	<g>
		<path class="st0" d="M315.1,403.5C315.1,403.5,315.1,403.5,315.1,403.5C315.1,403.5,315.1,403.5,315.1,403.5
			c-0.6-0.6-1.4-0.7-2.1-0.4l-32.1,12.5c-0.8,0.3-1.3,1.2-1.2,2.1c0.1,0.9,0.8,1.6,1.7,1.7l15.7,2.1c0,0,0.1,0,0.1,0.1l2.1,15.7
			c0.1,0.9,0.8,1.6,1.7,1.7c0.1,0,0.2,0,0.2,0c0.8,0,1.5-0.5,1.8-1.3l12.5-32.1C315.8,404.9,315.6,404.1,315.1,403.5z M281.6,417.5
			C281.6,417.5,281.5,417.5,281.6,417.5c-0.1-0.1,0-0.1,0-0.1l30-11.7l-14,14C297.5,419.7,281.6,417.5,281.6,417.5z M301.2,437
			C301.2,437,301.2,437.1,301.2,437c-0.1,0-0.1,0-0.1,0c0,0-2.1-15.9-2.2-16l14-14L301.2,437z"/>
	</g>
</g>
</svg>
