<?xml version="1.0" encoding="utf-8"?>
<!-- Generator: Adobe Illustrator 22.0.0, SVG Export Plug-In . SVG Version: 6.00 Build 0)  -->
<svg version="1.1" id="Layer_1" xmlns="http://www.w3.org/2000/svg" xmlns:xlink="http://www.w3.org/1999/xlink" x="0px" y="0px"
	 viewBox="173 363.5 68 67" style="enable-background:new 173 363.5 68 67;" xml:space="preserve">
<style type="text/css">
	.st0{fill:#00AEEF;}
</style>
<path d="M222.8,421.1c-0.7,0-1.4-0.2-2.1-0.5l-13.3-7c-0.3-0.1-0.6-0.1-0.8,0l-13.3,7c-1.5,0.8-3.3,0.7-4.7-0.3
	c-1.4-1-2.1-2.7-1.8-4.4l2.5-14.8c0-0.3,0-0.6-0.3-0.8l-10.8-10.5c-1.2-1.2-1.7-3-1.1-4.6s1.9-2.8,3.6-3.1l14.9-2.2
	c0.3,0,0.5-0.2,0.7-0.5L203,366c0.8-1.5,2.3-2.5,4-2.5s3.3,1,4,2.5l6.7,13.5c0.1,0.3,0.4,0.4,0.7,0.5l14.9,2.2
	c1.7,0.2,3.1,1.4,3.6,3.1c0.5,1.6,0.1,3.4-1.1,4.6l-10.8,10.5c-0.2,0.2-0.3,0.5-0.3,0.8l2.5,14.8c0.3,1.7-0.4,3.4-1.8,4.4
	C224.7,420.9,223.7,421.1,222.8,421.1z M207,409.9c0.7,0,1.4,0.2,2.1,0.5l13.3,7c0.4,0.2,0.8,0,0.9-0.1c0.1-0.1,0.4-0.4,0.4-0.9
	l-2.5-14.8c-0.2-1.5,0.2-2.9,1.3-4l10.8-10.5c0.4-0.4,0.3-0.8,0.2-0.9c-0.1-0.2-0.2-0.5-0.7-0.6l-14.9-2.2c-1.5-0.2-2.7-1.1-3.4-2.5
	l-6.7-13.5v0c-0.2-0.5-0.6-0.5-0.8-0.5c-0.2,0-0.6,0-0.8,0.5l-6.7,13.5c-0.7,1.3-1.9,2.2-3.4,2.5l-14.9,2.2
	c-0.5,0.1-0.7,0.5-0.7,0.6c-0.1,0.2-0.1,0.6,0.2,0.9l10.8,10.5c1.1,1,1.5,2.5,1.3,4l-2.5,14.8c-0.1,0.5,0.2,0.8,0.4,0.9
	c0.1,0.1,0.5,0.3,0.9,0.1l13.3-7C205.6,410.1,206.3,409.9,207,409.9z"/>
<path class="st0" d="M222.8,421.1c-0.7,0-1.4-0.2-2.1-0.5l-13.3-7c-0.3-0.1-0.6-0.1-0.8,0l-13.3,7c-1.5,0.8-3.3,0.7-4.7-0.3
	c-1.4-1-2.1-2.7-1.8-4.4l2.5-14.8c0-0.3,0-0.6-0.3-0.8l-10.8-10.5c-1.2-1.2-1.7-3-1.1-4.6s1.9-2.8,3.6-3.1l14.9-2.2
	c0.3,0,0.5-0.2,0.7-0.5L203,366c0.8-1.5,2.3-2.5,4-2.5s3.3,1,4,2.5l6.7,13.5c0.1,0.3,0.4,0.4,0.7,0.5l14.9,2.2
	c1.7,0.2,3.1,1.4,3.6,3.1c0.5,1.6,0.1,3.4-1.1,4.6l-10.8,10.5c-0.2,0.2-0.3,0.5-0.3,0.8l2.5,14.8c0.3,1.7-0.4,3.4-1.8,4.4
	C224.7,420.9,223.7,421.1,222.8,421.1z M207,409.9c0.7,0,1.4,0.2,2.1,0.5l13.3,7c0.4,0.2,0.8,0,0.9-0.1c0.1-0.1,0.4-0.4,0.4-0.9
	l-2.5-14.8c-0.2-1.5,0.2-2.9,1.3-4l10.8-10.5c0.4-0.4,0.3-0.8,0.2-0.9c-0.1-0.2-0.2-0.5-0.7-0.6l-14.9-2.2c-1.5-0.2-2.7-1.1-3.4-2.5
	l-6.7-13.5v0c-0.2-0.5-0.6-0.5-0.8-0.5c-0.2,0-0.6,0-0.8,0.5l-6.7,13.5c-0.7,1.3-1.9,2.2-3.4,2.5l-14.9,2.2
	c-0.5,0.1-0.7,0.5-0.7,0.6c-0.1,0.2-0.1,0.6,0.2,0.9l10.8,10.5c1.1,1,1.5,2.5,1.3,4l-2.5,14.8c-0.1,0.5,0.2,0.8,0.4,0.9
	c0.1,0.1,0.5,0.3,0.9,0.1l13.3-7C205.6,410.1,206.3,409.9,207,409.9z"/>
<path d="M225,371.9c-0.4,0-0.7-0.1-1.1-0.3c-0.8-0.6-1-1.7-0.4-2.5l1.9-2.6c0.6-0.8,1.7-1,2.5-0.4c0.8,0.6,1,1.7,0.4,2.5l-1.9,2.6
	C226.1,371.6,225.6,371.9,225,371.9z"/>
<path class="st0" d="M225,371.9c-0.4,0-0.7-0.1-1.1-0.3c-0.8-0.6-1-1.7-0.4-2.5l1.9-2.6c0.6-0.8,1.7-1,2.5-0.4
	c0.8,0.6,1,1.7,0.4,2.5l-1.9,2.6C226.1,371.6,225.6,371.9,225,371.9z"/>
<path d="M189,371.9c-0.6,0-1.1-0.3-1.5-0.7l-1.9-2.6c-0.6-0.8-0.4-1.9,0.4-2.5c0.8-0.6,1.9-0.4,2.5,0.4l1.9,2.6
	c0.6,0.8,0.4,1.9-0.4,2.5C189.7,371.7,189.4,371.9,189,371.9z"/>
<path class="st0" d="M189,371.9c-0.6,0-1.1-0.3-1.5-0.7l-1.9-2.6c-0.6-0.8-0.4-1.9,0.4-2.5c0.8-0.6,1.9-0.4,2.5,0.4l1.9,2.6
	c0.6,0.8,0.4,1.9-0.4,2.5C189.7,371.7,189.4,371.9,189,371.9z"/>
<path d="M174.8,407.1c-0.8,0-1.5-0.5-1.7-1.2c-0.3-0.9,0.2-2,1.2-2.3l3.1-1c0.9-0.3,2,0.2,2.3,1.2c0.3,0.9-0.2,2-1.2,2.3l-3.1,1
	C175.2,407.1,175,407.1,174.8,407.1z"/>
<path class="st0" d="M174.8,407.1c-0.8,0-1.5-0.5-1.7-1.2c-0.3-0.9,0.2-2,1.2-2.3l3.1-1c0.9-0.3,2,0.2,2.3,1.2
	c0.3,0.9-0.2,2-1.2,2.3l-3.1,1C175.2,407.1,175,407.1,174.8,407.1z"/>
<path d="M207,430.5c-1,0-1.8-0.8-1.8-1.8v-3.2c0-1,0.8-1.8,1.8-1.8c1,0,1.8,0.8,1.8,1.8v3.2C208.8,429.7,208,430.5,207,430.5z"/>
<path class="st0" d="M207,430.5c-1,0-1.8-0.8-1.8-1.8v-3.2c0-1,0.8-1.8,1.8-1.8c1,0,1.8,0.8,1.8,1.8v3.2
	C208.8,429.7,208,430.5,207,430.5z"/>
<path d="M239.2,407.1c-0.2,0-0.4,0-0.6-0.1l-3.1-1c-0.9-0.3-1.5-1.3-1.2-2.3s1.3-1.5,2.3-1.2l3.1,1c0.9,0.3,1.5,1.3,1.2,2.3
	C240.7,406.6,240,407.1,239.2,407.1z"/>
<path class="st0" d="M239.2,407.1c-0.2,0-0.4,0-0.6-0.1l-3.1-1c-0.9-0.3-1.5-1.3-1.2-2.3s1.3-1.5,2.3-1.2l3.1,1
	c0.9,0.3,1.5,1.3,1.2,2.3C240.7,406.6,240,407.1,239.2,407.1z"/>
</svg>
