<?xml version="1.0" encoding="utf-8"?>
<!-- Generator: Adobe Illustrator 22.0.0, SVG Export Plug-In . SVG Version: 6.00 Build 0)  -->
<svg version="1.1" id="Layer_1" xmlns="http://www.w3.org/2000/svg" xmlns:xlink="http://www.w3.org/1999/xlink" x="0px" y="0px"
	 viewBox="0 0 67 60.5" style="enable-background:new 0 0 67 60.5;" xml:space="preserve">
<style type="text/css">
	.st0{fill:#FFFFFF;}
</style>
<g>
	<path class="st0" d="M47,22.2l-11.4-9.9c-0.6-0.5-1.4-0.8-2.2-0.8c-0.8,0-1.6,0.3-2.2,0.8l-4,3.5c-0.2-0.9-0.4-1.8-0.4-2.7
		c0-2.3,0.7-4.4,2-6c1.2-1.5,2.8-2.3,4.5-2.3c3.6,0,6.5,3.7,6.5,8.3c0,0.8,0.6,1.4,1.4,1.4c0.8,0,1.4-0.6,1.4-1.4
		C42.8,7,38.6,2,33.5,2c-2.5,0-4.9,1.2-6.7,3.4c-1.7,2.1-2.6,4.8-2.6,7.7c0,1.6,0.3,3.2,0.9,4.7l-5,4.4c-1.3,1.1-2,2.7-2,4.4v24.9
		c0,3.8,3.1,7,7,7H42c3.8,0,7-3.1,7-7V26.6C49,24.9,48.3,23.3,47,22.2L47,22.2z M46.2,51.5c0,2.3-1.9,4.2-4.2,4.2H25
		c-2.3,0-4.2-1.9-4.2-4.2V26.6c0-0.9,0.4-1.7,1-2.3l4.6-4l0.4,0.6c1.8,2.2,4.1,3.4,6.7,3.4c0.8,0,1.4-0.6,1.4-1.4
		c0-0.8-0.6-1.4-1.4-1.4c-1.7,0-3.3-0.8-4.5-2.3c-0.2-0.2-0.3-0.4-0.5-0.6l4.7-4.1c0.1-0.1,0.2-0.1,0.3-0.1c0.1,0,0.2,0,0.3,0.1
		l11.4,9.9c0.7,0.6,1,1.4,1,2.3L46.2,51.5L46.2,51.5z M46.2,51.5"/>
	<path class="st0" d="M35,37.1H32c-1.1,0-2-0.9-2-2c0-1.1,0.9-2,2-2h5.4c0.8,0,1.4-0.6,1.4-1.4c0-0.8-0.6-1.4-1.4-1.4h-2.5v-1.8
		c0-0.8-0.6-1.4-1.4-1.4c-0.8,0-1.4,0.6-1.4,1.4v1.8H32c-2.6,0-4.7,2.1-4.7,4.7c0,2.6,2.1,4.7,4.7,4.7H35c1.1,0,2,0.9,2,2
		c0,1.1-0.9,2-2,2h-5.5c-0.8,0-1.4,0.6-1.4,1.4c0,0.8,0.6,1.4,1.4,1.4h2.6v1.8c0,0.8,0.6,1.4,1.4,1.4c0.8,0,1.4-0.6,1.4-1.4v-1.8
		h0.2c2.6,0,4.7-2.1,4.7-4.7C39.8,39.2,37.6,37.1,35,37.1L35,37.1z M35,37.1"/>
</g>
</svg>
