<?xml version="1.0" encoding="utf-8"?>
<!-- Generator: Adobe Illustrator 22.0.0, SVG Export Plug-In . SVG Version: 6.00 Build 0)  -->
<svg version="1.1" id="Ñëîé_2" xmlns="http://www.w3.org/2000/svg" xmlns:xlink="http://www.w3.org/1999/xlink" x="0px" y="0px"
	 viewBox="0 0 67 59" style="enable-background:new 0 0 67 59;" xml:space="preserve">
<style type="text/css">
	.st0{fill:#FFFFFF;}
</style>
<g>
	<g>
		<g>
			<path class="st0" d="M49.9,34.8H17.1c-1.1,0-2-0.9-2-2v-6.8l8.7-5.9l1.2-18c0.1-1.1,1-1.9,2.1-1.9h13.1c1.1,0,2,0.9,2.1,1.9
				l1.2,18l8.7,5.9v6.8C52,33.9,51.1,34.8,49.9,34.8z M17.5,32.4h32.1v-5.2L41,21.3L39.7,2.4H27.3L26,21.3l-8.6,5.9V32.4z"/>
		</g>
	</g>
	<g>
		<path class="st0" d="M23,41.2l2.2,2.9c0.3,0.4,0.8,0.4,1.1,0.2l0.6-0.5c0.4-0.3,0.4-0.8,0.2-1.1l-3.9-5.2
			c-0.4-0.5-0.9-0.7-1.4-0.8c-0.6,0-1.1,0.2-1.5,0.7l-4.2,5c-0.3,0.3-0.2,0.9,0.1,1.1l0.6,0.5c0.3,0.3,0.9,0.2,1.1-0.1l2.6-3.1
			c-0.2,1.9-0.5,5.2,0.3,8.3c0.9,4,1,7.2,0.9,9.1c0,0.4,0.3,0.8,0.8,0.8h0.8c0.4,0,0.8-0.4,0.9-0.8c0.1-2,0-5.4-1-9.6
			C22.6,45.9,22.8,43,23,41.2z"/>
		<path class="st0" d="M34.9,41.2l2.2,2.9c0.3,0.4,0.8,0.4,1.1,0.2l0.6-0.5c0.4-0.3,0.4-0.8,0.2-1.1l-3.9-5.2
			c-0.4-0.5-0.9-0.7-1.4-0.8c-0.6,0-1.1,0.2-1.5,0.7l-4.2,5c-0.3,0.3-0.2,0.9,0.1,1.1l0.6,0.5c0.3,0.3,0.9,0.2,1.1-0.1l2.6-3.1
			c-0.2,1.9-0.5,5.2,0.3,8.3c0.9,4,1,7.2,0.9,9.1c0,0.4,0.3,0.8,0.8,0.8h0.8c0.4,0,0.8-0.4,0.9-0.8c0.1-2,0-5.4-1-9.6
			C34.5,45.9,34.7,43,34.9,41.2z"/>
		<path class="st0" d="M47,37.5c-0.4-0.5-0.9-0.7-1.4-0.8c-0.6,0-1.1,0.2-1.5,0.7l-4.2,5c-0.3,0.3-0.2,0.9,0.1,1.1l0.6,0.5
			c0.3,0.3,0.9,0.2,1.1-0.1l2.6-3.1c-0.2,1.9-0.5,5.2,0.3,8.3c0.9,4,1,7.2,0.9,9.1c0,0.4,0.3,0.8,0.8,0.8h0.8c0.4,0,0.8-0.4,0.9-0.8
			c0.1-2,0-5.4-1-9.6c-0.6-2.6-0.4-5.6-0.2-7.3l2.2,2.9c0.3,0.4,0.8,0.4,1.1,0.2l0.6-0.5c0.4-0.3,0.4-0.8,0.2-1.1L47,37.5z"/>
	</g>
</g>
<g>
	<g>
		<g>
			<path class="st0" d="M49.9,34.8H17.1c-1.1,0-2-0.9-2-2v-6.8l8.7-5.9l1.2-18c0.1-1.1,1-1.9,2.1-1.9h13.1c1.1,0,2,0.9,2.1,1.9
				l1.2,18l8.7,5.9v6.8C52,33.9,51.1,34.8,49.9,34.8z M17.5,32.4h32.1v-5.2L41,21.3L39.7,2.4H27.3L26,21.3l-8.6,5.9V32.4z"/>
		</g>
	</g>
	<g>
		<path class="st0" d="M23,41.2l2.2,2.9c0.3,0.4,0.8,0.4,1.1,0.2l0.6-0.5c0.4-0.3,0.4-0.8,0.2-1.1l-3.9-5.2
			c-0.4-0.5-0.9-0.7-1.4-0.8c-0.6,0-1.1,0.2-1.5,0.7l-4.2,5c-0.3,0.3-0.2,0.9,0.1,1.1l0.6,0.5c0.3,0.3,0.9,0.2,1.1-0.1l2.6-3.1
			c-0.2,1.9-0.5,5.2,0.3,8.3c0.9,4,1,7.2,0.9,9.1c0,0.4,0.3,0.8,0.8,0.8h0.8c0.4,0,0.8-0.4,0.9-0.8c0.1-2,0-5.4-1-9.6
			C22.6,45.9,22.8,43,23,41.2z"/>
		<path class="st0" d="M34.9,41.2l2.2,2.9c0.3,0.4,0.8,0.4,1.1,0.2l0.6-0.5c0.4-0.3,0.4-0.8,0.2-1.1l-3.9-5.2
			c-0.4-0.5-0.9-0.7-1.4-0.8c-0.6,0-1.1,0.2-1.5,0.7l-4.2,5c-0.3,0.3-0.2,0.9,0.1,1.1l0.6,0.5c0.3,0.3,0.9,0.2,1.1-0.1l2.6-3.1
			c-0.2,1.9-0.5,5.2,0.3,8.3c0.9,4,1,7.2,0.9,9.1c0,0.4,0.3,0.8,0.8,0.8h0.8c0.4,0,0.8-0.4,0.9-0.8c0.1-2,0-5.4-1-9.6
			C34.5,45.9,34.7,43,34.9,41.2z"/>
		<path class="st0" d="M47,37.5c-0.4-0.5-0.9-0.7-1.4-0.8c-0.6,0-1.1,0.2-1.5,0.7l-4.2,5c-0.3,0.3-0.2,0.9,0.1,1.1l0.6,0.5
			c0.3,0.3,0.9,0.2,1.1-0.1l2.6-3.1c-0.2,1.9-0.5,5.2,0.3,8.3c0.9,4,1,7.2,0.9,9.1c0,0.4,0.3,0.8,0.8,0.8h0.8c0.4,0,0.8-0.4,0.9-0.8
			c0.1-2,0-5.4-1-9.6c-0.6-2.6-0.4-5.6-0.2-7.3l2.2,2.9c0.3,0.4,0.8,0.4,1.1,0.2l0.6-0.5c0.4-0.3,0.4-0.8,0.2-1.1L47,37.5z"/>
	</g>
</g>
</svg>
