<?xml version="1.0" encoding="utf-8"?>
<!-- Generator: Adobe Illustrator 22.0.0, SVG Export Plug-In . SVG Version: 6.00 Build 0)  -->
<svg version="1.1" id="Layer_1" xmlns="http://www.w3.org/2000/svg" xmlns:xlink="http://www.w3.org/1999/xlink" x="0px" y="0px"
	 viewBox="0 0 67 59" style="enable-background:new 0 0 67 59;" xml:space="preserve">
<style type="text/css">
	.st0{fill:#FFFFFF;stroke:#FFFFFF;stroke-width:0.8;stroke-miterlimit:10;}
</style>
<g>
	<circle class="st0" cx="14.8" cy="40.3" r="2"/>
	<path class="st0" d="M21.6,44c-0.8,0-1.5,0.7-1.5,1.5s0.7,1.5,1.5,1.5s1.5-0.7,1.5-1.5C23.1,44.6,22.4,44,21.6,44z"/>
	<path class="st0" d="M57.3,19.8L54.7,22c-0.2,0.1-0.3,0.3-0.3,0.5c-0.1,0.4-2.5,8.7-15.1,8.8c-2.2,0-4.2,0-6,0
		c-2.2,0-3.7-0.9-4.4-1.6c-0.3-0.3-0.3-0.6-0.4-0.6c0,0,0.2-0.1,0.6-0.2c3.4-0.3,9.9-1.9,10.2-2c0.6-0.1,0.9-0.7,0.8-1.3
		c-0.1-0.6-0.7-0.9-1.3-0.8c-0.1,0-6.7,1.6-9.9,2c-1.9,0.2-2.5,1.4-2.5,2.3c0,0.7,0.4,1.4,1.1,2.1c-3,0-5.3,0-7.4,0
		c-1.7,0-3.2,0-4.7,0c-2.3,0-4.1-0.5-4.9-1.3c-0.3-0.3-0.4-0.7-0.5-1c1-0.5,4.6-1.2,7.8-1.8c4.4-0.8,9.8-1.8,14.4-3.3
		c3.9-1.2,7.9-2.7,11.9-4.3c3.5-1.4,6.7-3.5,9.4-6.3l5.2-6c0.4-0.4,0.3-1.1-0.1-1.5c-0.4-0.4-1.1-0.3-1.5,0.1l-5.1,6
		c-2.5,2.5-5.4,4.4-8.7,5.8c-3.9,1.6-7.8,3-11.7,4.2c-4.6,1.4-9.9,2.4-14.2,3.2c-7.2,1.5-9.3,2-9.4,3.5c-0.1,1,0.3,2,1,2.8
		c0.6,0.7,1.5,1.2,2.6,1.5C9.5,34.2,8,36.6,8,39.4v6.3c0,4.3,3.5,7.7,7.7,7.7h28.6c4.3,0,7.7-3.5,7.7-7.7v-6.3
		c0-3.4-2.2-6.3-5.3-7.3c6.7-2.4,8.9-7.4,9.4-8.7l2.4-2c0.4-0.4,0.5-1,0.1-1.5C58.4,19.5,57.7,19.4,57.3,19.8z M50.3,39.4v6.3
		c0,3.3-2.7,6-6,6H18.4c0.2-0.3,0.3-0.6,0.3-1c0-1-0.8-1.9-1.9-1.9c-1,0-1.9,0.8-1.9,1.9c0,0.4,0.1,0.7,0.3,0.9
		c-3.1-0.3-5.5-2.8-5.5-6v-6.3c0-3.3,2.7-6,6-6h17.6l0,0h11C47.6,33.4,50.3,36.1,50.3,39.4z"/>
</g>
</svg>
