<?xml version="1.0" encoding="utf-8"?>
<!-- Generator: Adobe Illustrator 22.0.0, SVG Export Plug-In . SVG Version: 6.00 Build 0)  -->
<svg version="1.1" id="Layer_1" xmlns="http://www.w3.org/2000/svg" xmlns:xlink="http://www.w3.org/1999/xlink" x="0px" y="0px"
	 viewBox="173 364 68 66" style="enable-background:new 173 364 68 66;" xml:space="preserve">
<style type="text/css">
	.st0{fill:#00AEEF;}
</style>
<circle class="st0" cx="187.9" cy="415.1" r="2.3"/>
<path class="st0" d="M239.1,402.9c0-1.1-0.3-2.1-0.9-3c1.4-1,2.3-2.6,2.3-4.4c0-2.9-2.4-5.3-5.3-5.3h-14l0.9-2c1.3-2.9,2-6,2-9.2
	c0,0,0-3.9,0-3.9c0-3-2.4-5.5-5.5-5.5c-2.2,0-4.2,1.3-5.1,3.4c0,0.1-1.3,3.8-1.3,3.8c-1.1,3.3-3.2,6.3-5.9,8.5l-6.5,5.4h-3.7v-1.7
	c0-1.8-1.5-3.3-3.3-3.3h-16.1c-1.8,0-3.3,1.5-3.3,3.3V421c0,1.8,1.5,3.3,3.3,3.3h16.1c1.8,0,3.3-1.5,3.3-3.3v-2.5h2l2,1
	c4.8,2.3,10.2,3.5,15.5,3.5h7.4h2.3h5.7c2.9,0,5.3-2.4,5.3-5.3c0-1.1-0.3-2.1-0.9-3c1.4-1,2.3-2.6,2.3-4.4c0-1.1-0.3-2.1-0.9-3
	C238.2,406.3,239.1,404.7,239.1,402.9z M192.9,421h-16.1v-31.7h16.1V421C192.9,421,192.9,421,192.9,421z M231.1,419.7h-5.7h-2.3
	h-7.4c-4.8,0-9.7-1.1-14.1-3.2l-2.4-1.1c-0.2-0.1-0.5-0.2-0.7-0.2h-2.4v-21h4.3c0.4,0,0.8-0.1,1-0.4l6.9-5.8c3.2-2.6,5.5-6.1,6.9-10
	c0,0,1.3-3.8,1.3-3.8c0.4-0.8,1.1-1.3,2-1.3c1.2,0,2.2,1,2.2,2.2c0,0,0,3.9,0,3.9c0,2.7-0.6,5.4-1.7,7.8l-1.9,4.3
	c-0.2,0.4-0.2,0.8-0.1,1.1c0,0,0.4,1.2,1.6,1.2h16.5c1.1,0,2.1,0.9,2.1,2.1c0,1.1-0.9,2.1-2.1,2.1h-2.3c-0.9,0-1.6,0.7-1.6,1.6
	c0,0.9,0.7,1.6,1.6,1.6h1c1.1,0,2.1,0.9,2.1,2.1c0,1.1-0.9,2.1-2.1,2.1h-2.3c-0.9,0-1.6,0.7-1.6,1.6c0,0.9,0.7,1.6,1.6,1.6h1
	c1.1,0,2.1,0.9,2.1,2.1c0,1.1-0.9,2.1-2.1,2.1h-2.3c-0.9,0-1.6,0.7-1.6,1.6s0.7,1.6,1.6,1.6h1c1.1,0,2.1,0.9,2.1,2.1
	C233.2,418.8,232.2,419.7,231.1,419.7z"/>
</svg>
