<?xml version="1.0" encoding="utf-8"?>
<!-- Generator: Adobe Illustrator 22.0.0, SVG Export Plug-In . SVG Version: 6.00 Build 0)  -->
<svg version="1.1" id="Ñëîé_2" xmlns="http://www.w3.org/2000/svg" xmlns:xlink="http://www.w3.org/1999/xlink" x="0px" y="0px"
	 viewBox="0 0 67 59" style="enable-background:new 0 0 67 59;" xml:space="preserve">
<style type="text/css">
	.st0{fill:#FFFFFF;}
</style>
<g>
	<path class="st0" d="M51.1,43.8l15.8-27.7c0.2-0.3,0.2-0.7,0-1c-0.1-0.1-0.2-0.2-0.3-0.3C46.6,4,26.9,10.4,17.7,16.4
		c-0.4,0.3-0.5,0.8-0.2,1.3l18,26.3c0.3,0.4,0.9,0.6,1.3,0.4c2-0.9,7.5-2.8,13,0C50.3,44.4,50.8,44.3,51.1,43.8z M36.9,41.3
		L20.8,17.7C24,15.8,30.2,13,38.4,12c8.8-1,17.3,0.5,25.2,4.4L49.5,41.1C44.4,39.2,39.6,40.3,36.9,41.3z"/>
	<path class="st0" d="M22.2,41.1l-7-10.2c-0.3-0.4-0.9-0.5-1.3-0.2l-0.8,0.5c-0.4,0.3-0.5,0.9-0.2,1.3l2.7,4l-5.5,3.8
		c-0.8-0.8-2-0.9-2.9-0.3L1,44.2c-1,0.7-1.3,2.1-0.6,3.2L1.5,49c0.7,1,2.1,1.3,3.2,0.6l6.2-4.3c0.9-0.6,1.2-1.8,0.8-2.8l5.5-3.8
		l2.7,4c0.3,0.4,0.9,0.5,1.3,0.2l0.8-0.5C22.3,42.1,22.4,41.6,22.2,41.1z M3.5,47.1l-0.6-0.9l5.5-3.7L9,43.3L3.5,47.1z"/>
	<path class="st0" d="M31,47l-18-26.3c-0.3-0.4-0.9-0.5-1.3-0.2l-0.8,0.5c-0.4,0.3-0.5,0.9-0.2,1.3l18,26.3c0.3,0.4,0.9,0.5,1.3,0.2
		l0.8-0.5C31.1,48,31.2,47.4,31,47z"/>
	<path class="st0" d="M34.3,44.7l-18-26.3c-0.3-0.4-0.9-0.5-1.3-0.2l-0.8,0.5c-0.4,0.3-0.5,0.9-0.2,1.3l18,26.3
		c0.3,0.4,0.9,0.5,1.3,0.2l0.8-0.5C34.5,45.7,34.6,45.1,34.3,44.7z"/>
</g>
</svg>
