<?xml version="1.0" encoding="utf-8"?>
<!-- Generator: Adobe Illustrator 22.0.0, SVG Export Plug-In . SVG Version: 6.00 Build 0)  -->
<svg version="1.1" id="Layer_1" xmlns="http://www.w3.org/2000/svg" xmlns:xlink="http://www.w3.org/1999/xlink" x="0px" y="0px"
	 viewBox="0 0 67 59" style="enable-background:new 0 0 67 59;" xml:space="preserve">
<style type="text/css">
	.st0{fill:#FFFFFF;stroke:#FFFFFF;stroke-miterlimit:10;}
</style>
<path class="st0" d="M52.2,5.4H14.8C11.1,5.4,8,8.5,8,12.2v23.7c0,3.8,3.1,6.8,6.8,6.8h8c1,1.7,1.7,2.6,2.1,3v7.1
	c0,0.5,0.4,0.8,0.8,0.8c0.5,0,0.8-0.4,0.8-0.8v-7.4c0-0.2-0.1-0.4-0.3-0.6c0,0,0,0,0,0c0,0-1.8-1.8-3.9-6.7l-1.9-4.3
	c-1.7-4-3.4-7.7-3.9-9c0-0.1-0.1-0.2,0.3-0.4c0.8-0.4,3-0.4,4.5,1.6c0.8,1.1,1.3,1.9,1.8,2.7c0.3,0.4,0.5,0.8,0.7,1.2
	c0.2,0.3,0.6,0.4,0.9,0.3c0.4-0.1,0.6-0.4,0.6-0.8v-14c0-1,0.9-1.9,2-1.9c1,0,1.8,0.7,1.9,1.6v8.1c0,0.5,0.4,0.8,0.8,0.8
	c0.5,0,0.8-0.4,0.8-0.8V12.9c0,0,0,0,0,0v-1.6c0-1,0.9-1.9,2-1.9c1.1,0,2,0.8,2,1.9v2.8c0,0,0,0.1,0,0.1v9c0,0.5,0.4,0.8,0.8,0.8
	c0.5,0,0.8-0.4,0.8-0.8V14c0-1,0.9-1.8,1.9-1.8c1.1,0,2,0.8,2,1.9v4.6c0,0,0,0,0,0v4.9c0,0.5,0.4,0.8,0.8,0.8c0.5,0,0.8-0.4,0.8-0.8
	v-4.9c0,0,0,0,0,0c0-1,0.9-1.9,2-1.9c1.1,0,2,0.8,2,1.9l0,11.1l0,7.8c0,4.8-3.1,7.2-3.2,7.3c0,0,0,0,0,0c0,0-0.1,0.1-0.1,0.1
	c0,0-0.1,0.1-0.1,0.1c0,0.1,0,0.1-0.1,0.2c0,0.1,0,0.1,0,0.1c0,0,0,0,0,0.1v7.2c0,0.5,0.4,0.8,0.8,0.8s0.8-0.4,0.8-0.8v-6.9
	c0.5-0.5,1.6-1.5,2.4-3.2h2.6c1.8,0,3.4-1.3,3.7-3.1l2.2,0c1.8,0,3.7-1.2,3.8-3.7V12.2C59,8.5,55.9,5.4,52.2,5.4z M57.3,36
	c0,1.4-1.1,1.9-2.1,1.9c0,0,0,0,0,0h-2.1V15.1c0-0.5-0.4-0.8-0.8-0.8c-0.5,0-0.8,0.4-0.8,0.8v23.6c0,0,0,0,0,0.1c0,0,0,0,0,0.1
	c0,1.2-1,2.2-2.2,2.2h-2c0.3-1,0.5-2.1,0.5-3.5V18.6c0-2-1.6-3.6-3.6-3.6c-0.7,0-1.4,0.2-2,0.6v-1.6c0-2-1.6-3.6-3.6-3.6
	c-0.7,0-1.4,0.2-2,0.6c-0.1-1.9-1.7-3.3-3.6-3.3c-2,0-3.6,1.6-3.6,3.6v1c-0.6-0.3-1.2-0.5-1.9-0.5c-2,0-3.6,1.6-3.6,3.6v11.1
	c-0.3-0.5-0.6-0.9-1-1.5c-1.9-2.5-4.9-3-6.6-2.1c-1,0.5-1.4,1.5-1,2.4c0.5,1.4,2.2,5.2,3.9,9.1l1.9,4.3c0.4,0.9,0.7,1.6,1.1,2.3
	h-7.1c-2.8,0-5.1-2.3-5.1-5.1V12.2c0-2.8,2.3-5.1,5.1-5.1h37.4c2.8,0,5.1,2.3,5.1,5.1L57.3,36z"/>
</svg>
