<?xml version="1.0" encoding="utf-8"?>
<!-- Generator: Adobe Illustrator 22.0.0, SVG Export Plug-In . SVG Version: 6.00 Build 0)  -->
<svg version="1.1" id="Ñëîé_2" xmlns="http://www.w3.org/2000/svg" xmlns:xlink="http://www.w3.org/1999/xlink" x="0px" y="0px"
	 viewBox="0 0 48 47" style="enable-background:new 0 0 48 47;" xml:space="preserve">
<style type="text/css">
	.st0{fill:#FFFFFF;}
</style>
<g>
	<g>
		<path class="st0" d="M40.5,18.6c1.8,0,3.2-1.5,3.2-3.2s-1.5-3.2-3.2-3.2c-1.8,0-3.2,1.5-3.2,3.2S38.7,18.6,40.5,18.6z M39.3,15.4
			c0-0.6,0.5-1.2,1.2-1.2c0.6,0,1.2,0.5,1.2,1.2c0,0.6-0.5,1.2-1.2,1.2C39.8,16.5,39.3,16,39.3,15.4z"/>
		<path class="st0" d="M29.5,12.1c1.6,0,3-1.3,3-3c0-1.6-1.3-3-3-3c-1.6,0-3,1.3-3,3C26.5,10.8,27.9,12.1,29.5,12.1z M28.6,9.2
			c0-0.5,0.4-0.9,0.9-0.9c0.5,0,0.9,0.4,0.9,0.9c0,0.5-0.4,0.9-0.9,0.9C29,10.1,28.6,9.7,28.6,9.2z"/>
		<path class="st0" d="M7.8,19c0-2-1.6-3.7-3.7-3.7c-2,0-3.7,1.6-3.7,3.7c0,2,1.6,3.7,3.7,3.7C6.2,22.7,7.8,21,7.8,19z M5.8,19
			c0,0.9-0.7,1.6-1.6,1.6c-0.9,0-1.6-0.7-1.6-1.6c0-0.9,0.7-1.6,1.6-1.6C5,17.4,5.8,18.1,5.8,19z"/>
		<path class="st0" d="M41.9,19.7c-0.6,0-1.3,0.1-1.9,0.4c-0.9-1.3-2.3-2-3.8-2c-0.5-3-3.2-5.3-6.2-5.3c-1,0-2,0.2-2.9,0.7
			c-0.5-2-2.4-3.5-4.5-3.5c-1.3,0-2.6,0.5-3.4,1.5c-1-0.9-2.3-1.4-3.6-1.4c-3,0-5.5,2.5-5.5,5.5c0,0.5,0.1,0.9,0.2,1.4
			c-1.3,1-2,2.6-2,4.3c0,0.5,0.1,1,0.2,1.5C7.4,23.2,6.7,24,6.3,25l-0.2,0.5l2.6-0.4L8.8,25c0.3-0.3,0.7-0.5,1.1-0.5l1.6-0.2
			L10.7,23c-0.3-0.5-0.4-1.1-0.4-1.7c0-1.2,0.7-2.3,1.7-3l0.8-0.5L12.4,17c-0.2-0.4-0.3-0.9-0.3-1.4c0-1.9,1.5-3.4,3.4-3.4
			c1.2,0,2.2,0.6,2.9,1.6l1.1,1.6l0.8-1.8c0.4-0.9,1.3-1.6,2.4-1.6c1.4,0,2.6,1.2,2.6,2.6c0,0.2,0,0.4-0.1,0.6l-0.8,3.7l2.6-2.8
			c0.8-0.9,1.9-1.3,3.1-1.3c1.1,0,2.2,0.4,3,1.2c0.8,0.8,1.2,1.9,1.2,3l0,1.4l1.3-0.3c0.2-0.1,0.4-0.1,0.7-0.1
			c1.1,0,2.1,0.7,2.5,1.8l0.5,1.4l1.2-0.9c0.5-0.4,1-0.6,1.6-0.6c1.5,0,2.6,1.2,2.6,2.6c0,0.2,0,0.4-0.1,0.6l2,0.4
			c0.1-0.3,0.1-0.7,0.1-1C46.6,21.8,44.5,19.7,41.9,19.7z"/>
		<polygon class="st0" points="17.1,20.5 18.1,20.2 17.2,19.4 		"/>
		<path class="st0" d="M15.6,9.5c1.4,0,2.6-1.2,2.6-2.6c0-1.4-1.2-2.6-2.6-2.6s-2.6,1.2-2.6,2.6C13.1,8.3,14.2,9.5,15.6,9.5z
			 M15.1,6.9c0-0.3,0.2-0.5,0.5-0.5c0.3,0,0.5,0.2,0.5,0.5c0,0.3-0.2,0.5-0.5,0.5C15.4,7.4,15.1,7.2,15.1,6.9z"/>
	</g>
	<g>
		<g>
			<g>
				<path class="st0" d="M46.8,42.7h-9.1v-1.9H14.4v1.9H6.9L6.7,42c-0.1-0.3-1.9-7.5,1.8-11.6H8c-0.8,0-1.5-0.7-1.5-1.5v-0.6
					c0-0.8,0.6-1.5,1.4-1.6l5.1-0.8c0.1,0,0.4-0.2,0.5-0.3c1.8-2,5.6-4.5,13.4-4.9l0,0l0,0c7.7,0.3,11.6,2.8,13.4,4.9
					c0.1,0.1,0.4,0.3,0.5,0.3l4.5,0.8c0.8,0.1,1.4,0.8,1.4,1.6v0.6c0,0.8-0.6,1.5-1.4,1.5c3.8,4.2,1.9,11.3,1.8,11.6L46.8,42.7z
					 M39.6,40.9h5.8c0.4-2,1.1-7.9-2.9-10.3c-0.7-0.5-0.7-1-0.6-1.3c0.1-0.2,0.3-0.8,1.2-0.8h1.7v-0.2l-4.3-0.8
					c-0.5-0.1-1.1-0.5-1.5-0.9c-1.6-1.8-5-3.9-12.1-4.2c-7.1,0.3-10.5,2.5-12.1,4.3c-0.4,0.4-1,0.8-1.5,0.9l-4.9,0.8v0.2h2.3
					c0.9,0,1.1,0.5,1.2,0.8c0.1,0.2,0.1,0.8-0.6,1.3c-4,2.4-3.3,8.3-2.9,10.3h4.2v-0.3c0-0.8,0.7-1.5,1.5-1.5H38
					c0.8,0,1.5,0.7,1.5,1.5V40.9z"/>
			</g>
			<path class="st0" d="M26.8,25.7c4.4,0.2,6.9,1.2,8.4,2.1H18.4C19.9,26.9,22.5,25.9,26.8,25.7 M26.8,23.8
				c-10.5,0.5-12,5.1-12.1,5.6l0,0.3H39l0-0.2C38.8,28.9,37.3,24.3,26.8,23.8L26.8,23.8z"/>
			<g>
				<path class="st0" d="M16.1,36.6H9.3l-0.2-0.7c-0.4-1.5,0.7-3.4,0.8-3.7l0.4-0.6l6.1,1.8c0.7,0.2,1.3,0.9,1.3,1.7
					C17.7,35.9,17,36.6,16.1,36.6z M10.9,34.7h3.4l-3.1-0.9C11.1,34.1,11,34.4,10.9,34.7z"/>
			</g>
			<g>
				<path class="st0" d="M44.3,36.6h-6.8c-0.8,0-1.5-0.7-1.5-1.5c0-0.7,0.5-1.5,1.3-1.7l6.1-1.8l0.4,0.6c0.1,0.2,1.3,2.1,0.8,3.7
					L44.3,36.6z M39.3,34.7h3.4c-0.1-0.3-0.2-0.6-0.3-0.9L39.3,34.7z"/>
			</g>
		</g>
	</g>
</g>
</svg>
