<?xml version="1.0" encoding="utf-8"?>
<!-- Generator: Adobe Illustrator 22.0.0, SVG Export Plug-In . SVG Version: 6.00 Build 0)  -->
<svg version="1.1" id="Layer_1" xmlns="http://www.w3.org/2000/svg" xmlns:xlink="http://www.w3.org/1999/xlink" x="0px" y="0px"
	 viewBox="0 0 17 17" style="enable-background:new 0 0 17 17;" xml:space="preserve">
<style type="text/css">
	.st0{fill:#FFFFFF;}
</style>
<path class="st0" d="M9,2V1h1.5V0h-4v1H8v1C4.1,2.3,1,5.5,1,9.5C1,13.6,4.4,17,8.5,17S16,13.6,16,9.5C16,5.5,12.9,2.3,9,2z M8.5,16
	C4.9,16,2,13.1,2,9.5S4.9,3,8.5,3S15,5.9,15,9.5S12.1,16,8.5,16z M9,9h4v1H8V6h1V9z"/>
</svg>
