<?xml version="1.0" encoding="utf-8"?>
<!-- Generator: Adobe Illustrator 22.0.0, SVG Export Plug-In . SVG Version: 6.00 Build 0)  -->
<svg version="1.1" id="Layer_1" xmlns="http://www.w3.org/2000/svg" xmlns:xlink="http://www.w3.org/1999/xlink" x="0px" y="0px"
	 viewBox="0 0 48.5 46.6" style="enable-background:new 0 0 48.5 46.6;" xml:space="preserve">
<style type="text/css">
	.st0{fill:#FFFFFF;stroke:#FFFFFF;stroke-width:1.5;stroke-miterlimit:10;}
</style>
<g>
	<path class="st0" d="M18.5,6.6c2,0,3.6,1.6,3.6,3.6c0,0.4,0.3,0.8,0.8,0.8c0.4,0,0.8-0.3,0.8-0.8c0-2,1.6-3.6,3.6-3.6
		c0.4,0,0.8-0.3,0.8-0.8c0-0.4-0.3-0.8-0.8-0.8c-2,0-3.6-1.6-3.6-3.6c0-0.4-0.3-0.8-0.8-0.8c-0.4,0-0.8,0.3-0.8,0.8
		c0,2-1.6,3.6-3.6,3.6c-0.4,0-0.8,0.3-0.8,0.8C17.7,6.2,18.1,6.6,18.5,6.6z M22.8,4.2c0.4,0.7,1,1.2,1.7,1.7c-0.7,0.4-1.2,1-1.7,1.7
		c-0.4-0.7-1-1.2-1.7-1.7C21.8,5.4,22.4,4.8,22.8,4.2z"/>
	<path class="st0" d="M44.4,25.7h-4.3l-1.4-4.4c-0.7-2.2-3.1-4-5.4-4H15.1c-1,0-2.1,0.4-3,1c0.5-3.1,3.1-5.4,6.3-5.4
		c0.4,0,0.8-0.3,0.8-0.8s-0.3-0.8-0.8-0.8c-3.5,0-6.4-2.9-6.4-6.4c0-0.4-0.3-0.8-0.8-0.8c-0.4,0-0.8,0.3-0.8,0.8
		c0,3.5-2.9,6.4-6.4,6.4c-0.4,0-0.8,0.3-0.8,0.8s0.3,0.8,0.8,0.8c3.5,0,6.4,2.9,6.4,6.4c0,0.1,0,0.2,0.1,0.3c-0.4,0.5-0.7,1-0.9,1.6
		l-1.4,4.4H4.1c-1.8,0-3.3,1.5-3.3,3.3c0,1.8,1.5,3.3,3.3,3.3h1.6c-0.6,2-1.2,4.6-1.2,8v2.4c0,1.7,1.4,3.2,3.2,3.2h2.8
		c1.7,0,3.2-1.4,3.2-3.2v-0.4h21.4v0.4c0,1.7,1.4,3.2,3.2,3.2h2.8c1.7,0,3.2-1.4,3.2-3.2v-2.4c0-3.3-0.5-6-1.2-8h1.6
		c1.8,0,3.3-1.5,3.3-3.3C47.8,27.2,46.3,25.7,44.4,25.7z M7.5,12.1c1.7-0.8,3-2.1,3.8-3.8c0.8,1.7,2.1,3,3.8,3.8
		c-1.7,0.8-3,2.1-3.8,3.8C10.5,14.3,9.1,12.9,7.5,12.1z M4.1,30.8c-1,0-1.8-0.8-1.8-1.8s0.8-1.8,1.8-1.8h3.8l-0.3,0.9
		c-0.2,0.3-0.8,1.2-1.4,2.7H4.1z M42.5,42.7c0,0.9-0.7,1.6-1.7,1.6h-2.8c-0.9,0-1.7-0.7-1.7-1.6v-1.1c0-0.4-0.3-0.8-0.8-0.8H12.8
		c-0.4,0-0.8,0.3-0.8,0.8v1.1c0,0.9-0.7,1.6-1.7,1.6H7.6c-0.9,0-1.6-0.7-1.6-1.6v-2.4c0-7.5,2.9-11.4,2.9-11.4
		c0-0.1,0.1-0.1,0.1-0.2l2.2-6.9c0.5-1.6,2.3-2.9,4-2.9h18.2c1.7,0,3.5,1.3,4,2.9l2.2,6.9c0,0.1,0.1,0.2,0.1,0.2c0,0,2.9,4,2.9,11.4
		V42.7z M44.4,30.8h-2.1c-0.6-1.5-1.2-2.4-1.4-2.7l-0.3-0.9h3.8c1,0,1.8,0.8,1.8,1.8S45.4,30.8,44.4,30.8z"/>
	<path class="st0" d="M11.2,32.9C9,32.8,7.9,33.5,7.5,34c-0.5,0.6-0.6,1.3-0.4,2.1c0.2,0.9,1.1,1.9,3.9,1.9h4.4
		c0.3,0,0.5-0.1,0.6-0.3c0.1-0.2,0.2-0.5,0.1-0.7C16.1,36.8,14.3,33,11.2,32.9z M11,36.6c-1.4,0-2.3-0.3-2.5-0.8
		c-0.1-0.5,0-0.7,0.1-0.8c0.1-0.2,0.6-0.6,2.1-0.6c0.1,0,0.3,0,0.4,0c1.3,0.1,2.4,1.3,3,2.2H11z"/>
	<path class="st0" d="M36.8,32.9c-3.1,0.1-4.9,4-4.9,4.1c-0.1,0.2-0.1,0.5,0.1,0.7c0.1,0.2,0.4,0.3,0.6,0.3h4.4c2.8,0,3.7-1,3.9-1.9
		c0.2-0.8,0.1-1.6-0.4-2.1C40,33.5,39,32.8,36.8,32.9z M39.3,35c0.1,0.1,0.2,0.3,0.1,0.8c-0.1,0.5-1.1,0.8-2.5,0.8h-3.1
		c0.6-0.9,1.7-2.1,3-2.2C38.6,34.3,39.1,34.8,39.3,35z"/>
	<path class="st0" d="M36.4,27.9c0.1-0.2,0.2-0.4,0.1-0.6l-1-4.5c-0.3-1.3-1.4-2.2-2.7-2.2H15.6c-1.3,0-2.4,0.9-2.7,2.2l-1,4.5
		c0,0.2,0,0.4,0.1,0.6c0.1,0.2,0.3,0.3,0.5,0.3l6.1,0.8c1.8,0.2,3.7,0.4,5.5,0.4s3.7-0.1,5.5-0.4c0,0,0,0,0,0l6.1-0.8
		C36.1,28.1,36.3,28,36.4,27.9z M29.6,27.5L29.6,27.5c-3.5,0.5-7.1,0.5-10.7,0l-5.3-0.7l0.8-3.6c0.1-0.6,0.6-1,1.2-1h17.2
		c0.6,0,1.1,0.4,1.2,1l0.8,3.6L29.6,27.5z"/>
</g>
</svg>
