<?xml version="1.0" encoding="utf-8"?>
<!-- Generator: Adobe Illustrator 22.0.0, SVG Export Plug-In . SVG Version: 6.00 Build 0)  -->
<svg version="1.1" id="Ñëîé_2" xmlns="http://www.w3.org/2000/svg" xmlns:xlink="http://www.w3.org/1999/xlink" x="0px" y="0px"
	 viewBox="0 0 48 47.9" style="enable-background:new 0 0 48 47.9;" xml:space="preserve">
<style type="text/css">
	.st0{fill:#FFFFFF;}
</style>
<g>
	<g>
		<g>
			<path class="st0" d="M37.4,28.2H10.6c-0.9,0-1.6-0.7-1.6-1.6V21l7-4.8L17,1.6C17,0.7,17.8,0,18.7,0h10.7C30.2,0,31,0.7,31,1.6
				L32,16.2l7,4.8v5.6C39,27.5,38.3,28.2,37.4,28.2z M11,26.3H37v-4.2l-7-4.8L29.1,2H18.9l-1,15.3l-7,4.8V26.3z"/>
		</g>
	</g>
	<g>
		<path class="st0" d="M15.4,33.5l1.8,2.3c0.2,0.3,0.6,0.3,0.9,0.1l0.5-0.4c0.3-0.2,0.3-0.6,0.1-0.9l-3.2-4.2
			c-0.3-0.4-0.7-0.6-1.2-0.6c-0.5,0-0.9,0.2-1.2,0.6l-3.4,4.1c-0.2,0.3-0.2,0.7,0.1,0.9l0.5,0.4c0.3,0.2,0.7,0.2,0.9-0.1l2.1-2.5
			c-0.2,1.6-0.4,4.2,0.2,6.7c0.8,3.2,0.8,5.9,0.7,7.4c0,0.4,0.3,0.7,0.6,0.7h0.7c0.4,0,0.7-0.3,0.7-0.7c0.1-1.6,0-4.4-0.8-7.8
			C15.1,37.3,15.3,34.9,15.4,33.5z"/>
		<path class="st0" d="M25.1,33.5l1.8,2.3c0.2,0.3,0.6,0.3,0.9,0.1l0.5-0.4c0.3-0.2,0.3-0.6,0.1-0.9l-3.2-4.2
			c-0.3-0.4-0.7-0.6-1.2-0.6c-0.5,0-0.9,0.2-1.2,0.6l-3.4,4.1c-0.2,0.3-0.2,0.7,0.1,0.9l0.5,0.4c0.3,0.2,0.7,0.2,0.9-0.1l2.1-2.5
			c-0.2,1.6-0.4,4.2,0.2,6.7c0.8,3.2,0.8,5.9,0.7,7.4c0,0.4,0.3,0.7,0.6,0.7h0.7c0.4,0,0.7-0.3,0.7-0.7c0.1-1.6,0-4.4-0.8-7.8
			C24.8,37.3,25,34.9,25.1,33.5z"/>
		<path class="st0" d="M35,30.4c-0.3-0.4-0.7-0.6-1.2-0.6c-0.5,0-0.9,0.2-1.2,0.6l-3.4,4.1c-0.2,0.3-0.2,0.7,0.1,0.9l0.5,0.4
			c0.3,0.2,0.7,0.2,0.9-0.1l2.1-2.5c-0.2,1.6-0.4,4.2,0.2,6.7c0.8,3.2,0.8,5.9,0.7,7.4c0,0.4,0.3,0.7,0.6,0.7h0.7
			c0.4,0,0.7-0.3,0.7-0.7c0.1-1.6,0-4.4-0.8-7.8c-0.5-2.1-0.4-4.5-0.2-5.9l1.8,2.3c0.2,0.3,0.6,0.3,0.9,0.1l0.5-0.4
			c0.3-0.2,0.3-0.6,0.1-0.9L35,30.4z"/>
	</g>
</g>
</svg>
