<?xml version="1.0" encoding="utf-8"?>
<!-- Generator: Adobe Illustrator 22.0.0, SVG Export Plug-In . SVG Version: 6.00 Build 0)  -->
<svg version="1.1" id="Layer_1" xmlns="http://www.w3.org/2000/svg" xmlns:xlink="http://www.w3.org/1999/xlink" x="0px" y="0px"
	 viewBox="0 0 48 47" style="enable-background:new 0 0 48 47;" xml:space="preserve">
<style type="text/css">
	.st0{fill:#FFFFFF;stroke:#FFFFFF;stroke-width:1.5;stroke-miterlimit:10;}
</style>
<g>
	<path class="st0" d="M12.3,6.2h7.6c0.4,0,0.8-0.3,0.8-0.8V1.5c0-0.4-0.3-0.8-0.8-0.8h-7.6c-0.4,0-0.8,0.3-0.8,0.8v3.9
		C11.6,5.9,11.9,6.2,12.3,6.2z M13.1,2.3h6v2.4h-6V2.3z"/>
	<path class="st0" d="M21.9,11.5c-0.2,0-0.5,0.1-0.6,0.3c-0.2,0.2-0.2,0.4-0.2,0.7c1.6,7.1,6.9,12.7,10.9,16.2
		c0.1,0.1,0.3,0.2,0.5,0.2c0.1,0,0.1,0,0.2,0c0.2-0.1,0.4-0.3,0.5-0.5c0-0.1,1.3-7.5-2.8-11.9C27.1,12.7,23.5,11.6,21.9,11.5z
		 M31.9,26.4c-3.5-3.1-7.4-7.6-9-13.2c1.6,0.4,4.1,1.6,6.5,4.1C31.8,20.1,32,24.3,31.9,26.4z"/>
	<path class="st0" d="M33.9,14.5C29.3,8,18.2,7.2,18.1,7.2h-3.4c-2.3,0-4.2,1.9-4.2,4.2V41c0,2.9,2.4,5.3,5.3,5.3h16.4
		c2.9,0,5.3-2.4,5.3-5.3l0-10.7C37.5,29.9,38.2,20.6,33.9,14.5z M35.9,30.2V41c0,2.1-1.7,3.7-3.7,3.7H15.8c-2.1,0-3.7-1.7-3.7-3.7
		V11.4c0-1.5,1.2-2.7,2.7-2.7h3.4c0.1,0,10.4,0.8,14.6,6.7C36.6,21,35.9,30,35.9,30.2z"/>
	<path class="st0" d="M31.7,30.2H16.3c-0.4,0-0.8,0.3-0.8,0.8v10.9c0,0.4,0.3,0.8,0.8,0.8h15.4c0.4,0,0.8-0.3,0.8-0.8V31
		C32.5,30.6,32.1,30.2,31.7,30.2z M30.9,41.1H17.1v-9.3h13.8V41.1z"/>
</g>
</svg>
