<?xml version="1.0" encoding="utf-8"?>
<!-- Generator: Adobe Illustrator 22.0.0, SVG Export Plug-In . SVG Version: 6.00 Build 0)  -->
<svg version="1.1" id="Layer_1" xmlns="http://www.w3.org/2000/svg" xmlns:xlink="http://www.w3.org/1999/xlink" x="0px" y="0px"
	 viewBox="0 0 60 55" style="enable-background:new 0 0 60 55;" xml:space="preserve">
<style type="text/css">
	.st0{fill-rule:evenodd;clip-rule:evenodd;fill:#0F4C8A;stroke:#0F4C8A;stroke-width:1.25;stroke-miterlimit:10;}
</style>
<path class="st0" d="M28.5,10.9v12.4H14.4V10.9H28.5L28.5,10.9z M47.8,15.9c-0.4-1.5-1.4-2.8-2.9-3.4l-4-8.2l-1.6,0.8l3.3,6.9
	c-0.7,0-1.4,0.1-2.1,0.4c-2,0.8-3.3,2.7-3.3,4.9c0,2.9,2.3,5.3,5.3,5.3c2.7,0,4.9-2,5.2-4.6c1.3,0.7,1.9,2,1.8,3.4v20.2
	c0,2.7-1.5,4.9-4.3,4.9c-2.7,0-4.5-2.2-4.5-4.9v-13c0-2.1-1.4-3-3.2-3h-3.4V5.1H8.5v45.8h25.8V27.3h3.4c0.8,0,1.5,0.4,1.5,1.3v13
	c0,3.7,2.6,6.6,6.3,6.6c3.8,0,6.1-3,6.1-6.7V21.3C51.5,18.8,50.3,16.8,47.8,15.9L47.8,15.9z M42.7,13.8c1.9,0,3.5,1.6,3.5,3.5
	c0,2-1.6,3.5-3.5,3.5c-2,0-3.5-1.5-3.5-3.5C39.2,15.3,40.7,13.8,42.7,13.8L42.7,13.8z M32.6,6.8H10.3v42.3h22.3V6.8L32.6,6.8z
	 M26.7,12.7H16.1v8.9h10.6V12.7z"/>
</svg>
