<?xml version="1.0" encoding="utf-8"?>
<!-- Generator: Adobe Illustrator 22.0.0, SVG Export Plug-In . SVG Version: 6.00 Build 0)  -->
<svg version="1.1" id="Ñëîé_2" xmlns="http://www.w3.org/2000/svg" xmlns:xlink="http://www.w3.org/1999/xlink" x="0px" y="0px"
	 viewBox="0 0 48 47" style="enable-background:new 0 0 48 47;" xml:space="preserve">
<style type="text/css">
	.st0{fill:#FFFFFF;}
</style>
<g>
	<path class="st0" d="M45.4,13.1l-7-7c-0.3-0.3-2.2-2.1-4.8-2.5l-6.4-1.5l-0.1,0c-0.7-0.1-1.5-0.1-2.2,0c-2.6,0.4-4.8,2.3-6.4,5.6
		l0,0.1c-1.5,3.3-2.2,4.8-5,7.7c-2.9,2.9-4.4,3.5-7.7,5l-0.1,0c-3.3,1.6-5.2,3.8-5.6,6.4c-0.6,3.7,2.2,6.7,2.5,7l7,7
		c0.3,0.3,2.2,2.1,4.8,2.5l5.9,1.4l0.5,0.1l0,0C21.2,45,21.6,45,22,45c0.4,0,0.7,0,1.1-0.1c2.6-0.4,4.8-2.3,6.4-5.6l0-0.1
		c1.5-3.3,2.2-4.8,5-7.7c2.9-2.9,4.4-3.5,7.7-5l0.1,0c3.3-1.6,5.2-3.8,5.6-6.4C48.5,16.3,45.7,13.4,45.4,13.1z M10.8,39.4L4,32.6
		c-0.3-0.3-2.4-2.6-2-5.3c0.3-2,1.8-3.7,4.5-5l0,0c3.3-1.5,5.2-2.3,8.3-5.4c3.1-3.1,3.9-5,5.4-8.3l0-0.1c0.5-0.9,1-1.7,1.5-2.4
		c3-0.1,5.2,1.5,5.3,1.5l0.1,0.1c0.6,0.3,1,0.7,1,0.7l7,7c0.3,0.3,1.2,1.4,1,2.4c-0.1,0.8-1.1,1.7-2.6,2.5c-3.7,1.7-5.8,2.7-9.2,6.1
		c-3.4,3.4-4.4,5.5-6.1,9.2c-0.4,0.7-0.8,1.3-1.2,1.8c-0.4,0.4-2.3,1.6-2.8,1.7l-0.1,0C13.6,39.2,11.8,39.5,10.8,39.4z M46,19.8
		c-0.3,2-1.8,3.7-4.5,5l0,0c-3.3,1.5-5.2,2.3-8.3,5.4c-3.1,3.1-3.9,4.9-5.4,8.3l0,0c-1.3,2.7-3,4.2-5,4.5c-0.6,0.1-1.3,0.1-2-0.1
		l-0.3-0.1l-5.6-1.3l-0.1,0c-0.5-0.1-1-0.2-1.4-0.4c0.6-0.1,1.1-0.2,1.2-0.3c1-0.2,3.2-1.6,3.9-2.3c0.5-0.6,1-1.3,1.5-2.2l0,0
		c1.6-3.6,2.6-5.5,5.7-8.7c3.2-3.2,5.1-4.1,8.7-5.7l0,0c2.2-1.1,3.5-2.4,3.7-3.9c0.3-2.1-1.5-4-1.6-4l-7-7c-0.1-0.1-0.6-0.6-1.4-1
		c-0.3-0.2-1.9-1.2-4.1-1.7c0.4-0.2,0.8-0.3,1.3-0.4c0.5-0.1,1-0.1,1.5,0l6.1,1.4l0,0l0.3,0c2.1,0.3,3.6,1.8,3.8,2l7,7
		C44.3,14.7,46.5,17,46,19.8z"/>
	<circle class="st0" cx="11.3" cy="34.9" r="1"/>
	<circle class="st0" cx="16.1" cy="32.1" r="1"/>
	<circle class="st0" cx="11.3" cy="28.8" r="1"/>
	<circle class="st0" cx="13.7" cy="23.1" r="1"/>
	<circle class="st0" cx="18.1" cy="27.2" r="1"/>
	<circle class="st0" cx="5.3" cy="26.2" r="1"/>
	<circle class="st0" cx="19.8" cy="20.7" r="1"/>
	<circle class="st0" cx="25.5" cy="21.6" r="1"/>
	<circle class="st0" cx="21.7" cy="13.8" r="1"/>
	<circle class="st0" cx="26.4" cy="16.2" r="1"/>
	<circle class="st0" cx="32.2" cy="17.1" r="1"/>
	<circle class="st0" cx="25.5" cy="10.3" r="1"/>
</g>
</svg>
