<?xml version="1.0" encoding="utf-8"?>
<!-- Generator: Adobe Illustrator 22.0.0, SVG Export Plug-In . SVG Version: 6.00 Build 0)  -->
<svg version="1.1" id="Isolation_Mode" xmlns="http://www.w3.org/2000/svg" xmlns:xlink="http://www.w3.org/1999/xlink" x="0px"
	 y="0px" viewBox="0 0 60 55" style="enable-background:new 0 0 60 55;" xml:space="preserve">
<style type="text/css">
	.st0{fill:#0F4C8A;stroke:#0F4C8A;stroke-width:1.5;stroke-miterlimit:10;}
</style>
<g>
	<path class="st0" d="M30.7,27.1c1.1,1.2,2.8,1.8,4.6,1.8c1.8,0,3.5-0.7,4.6-1.8c1.1-1.1,1.7-2.7,1.6-4.6c-0.1-4.2-5.3-9.7-5.6-9.9
		c-0.3-0.4-1-0.4-1.3,0c-0.2,0.2-5.5,5.7-5.6,9.9C29,24.4,29.6,26,30.7,27.1z M35.3,14.6c1.6,1.8,4.3,5.4,4.4,7.9
		c0,1.4-0.3,2.5-1.1,3.2c-1.5,1.6-5,1.6-6.6,0c-0.8-0.8-1.1-1.9-1.1-3.2C31,20,33.7,16.5,35.3,14.6z"/>
	<path class="st0" d="M21.2,22.7c1.4,0,2.7-0.5,3.6-1.4c0.9-0.9,1.3-2.1,1.3-3.6c-0.1-3.2-3.8-7.2-4.2-7.6c-0.3-0.4-1-0.4-1.3,0
		c-0.4,0.4-4.2,4.4-4.2,7.6c0,1.5,0.4,2.7,1.3,3.6C18.5,22.1,19.8,22.7,21.2,22.7z M21.2,12.1c1.2,1.4,3,3.9,3,5.6
		c0,1-0.2,1.7-0.8,2.3c-1.1,1.1-3.5,1.1-4.6,0c-0.5-0.5-0.8-1.3-0.8-2.3C18.2,15.9,20,13.5,21.2,12.1z"/>
	<path class="st0" d="M29.4,11.2c1.1,0,2.2-0.4,2.9-1.1c0.5-0.5,1.1-1.4,1-2.9c-0.1-2.5-2.9-5.5-3.2-5.9c-0.2-0.2-0.4-0.3-0.7-0.3
		c-0.3,0-0.5,0.1-0.7,0.3c-0.3,0.3-3.2,3.4-3.2,5.9c0,1.5,0.5,2.4,1,2.9C27.2,10.8,28.3,11.2,29.4,11.2z M29.4,3.4
		c0.9,1,2,2.7,2.1,3.9c0,0.7-0.2,1.2-0.5,1.5c-0.7,0.7-2.4,0.7-3.1,0c-0.3-0.4-0.5-0.9-0.5-1.5C27.4,6.2,28.4,4.6,29.4,3.4z"/>
	<path class="st0" d="M57.2,47.8h-5.1c-0.1,0-0.2,0-0.2,0l-18.5,4.9c-3.1,1-6.4,0.3-8.8-1.8l-20-15.6c1.6-1.4,3.9-1.8,5.9-1
		l11.8,5.5c-0.5,0.5-1,1-1.5,1.7c-0.7,1.1-0.8,2.4-0.1,3.5c0.7,1.2,1.9,1.9,3.3,1.8l16.6-1.2c0.5,0,0.9-0.5,0.9-1
		c0-0.5-0.5-0.9-1-0.9L23.7,45c-0.8,0.1-1.3-0.4-1.5-0.8c-0.1-0.2-0.4-0.9,0.1-1.6c0.8-1.2,1.9-2,2.2-2.2c3.9-1.8,14.5-6.4,17.8-6.6
		c4-0.2,9.6,3.2,9.7,3.2c0.1,0.1,0.3,0.1,0.5,0.1h4.8c0.5,0,0.9-0.4,0.9-0.9s-0.4-0.9-0.9-0.9h-4.6c-1.2-0.7-6.4-3.6-10.5-3.4
		c-1.4,0.1-3.9,0.8-6.5,1.8L32,31.4c-1.9-1.2-4.2-1.4-6.4-0.6l-3,1.2l-0.8-0.4c-2.2-1.2-4.9-1.2-7.2-0.2l-3.1,1.5l-0.4-0.2
		c-3.1-1.2-6.6-0.4-8.7,2.2c-0.2,0.2-0.2,0.4-0.2,0.7c0,0.3,0.2,0.5,0.4,0.6l20.8,16.3c2.1,1.7,4.6,2.6,7.2,2.6
		c1.1,0,2.2-0.2,3.3-0.5l18.3-4.8h5c0.5,0,0.9-0.4,0.9-0.9S57.8,47.8,57.2,47.8z M26.2,32.5c1.6-0.6,3.3-0.4,4.8,0.5l2.5,1.5
		c-1.2,0.5-2.5,1-3.6,1.5l-5.1-2.8L26.2,32.5z M15.5,33c1.7-0.8,3.8-0.8,5.5,0.1l6.7,3.7c-1.7,0.7-3.1,1.4-3.7,1.7l-10.2-4.7
		L15.5,33z"/>
</g>
</svg>
