<?xml version="1.0" encoding="utf-8"?>
<!-- Generator: Adobe Illustrator 22.0.0, SVG Export Plug-In . SVG Version: 6.00 Build 0)  -->
<svg version="1.1" id="Layer_1" xmlns="http://www.w3.org/2000/svg" xmlns:xlink="http://www.w3.org/1999/xlink" x="0px" y="0px"
	 viewBox="0 0 60 55" style="enable-background:new 0 0 60 55;" xml:space="preserve">
<style type="text/css">
	.st0{fill-rule:evenodd;clip-rule:evenodd;fill:#0F4C8A;stroke:#0F4C8A;stroke-width:1.25;stroke-miterlimit:10;}
</style>
<path class="st0" d="M32.2,9.3h-5.3v2.6H25V9.3h-4.1v2.6H19V9.3h-4.1v2.6H13V9.3H8.8v2.6H6.9V9.3H1.7V49h30.5V9.3L32.2,9.3z
	 M47.5,38.6c-1.9,0-3.5,1.6-3.5,3.5c0,1.9,1.6,3.5,3.5,3.5c1.9,0,3.5-1.6,3.5-3.5C51,40.1,49.5,38.6,47.5,38.6L47.5,38.6z
	 M47.5,36.7c-2.6,0-4.8,1.9-5.3,4.4h-8.2V18.5c1.5,0.4,2.8,1.3,3.8,2.5l6.1,7.3c0.9,1.1,2,1.5,3.4,1.5c0.5,0,0.9,0,1.4,0.1
	c3.2,0.3,5.5,1.6,7,3.4c1.7,2.2,2.3,5,2.2,7.8h-5C52.4,38.6,50.1,36.7,47.5,36.7L47.5,36.7z M52.8,43c-0.5,2.5-2.7,4.4-5.3,4.4
	c-2.6,0-4.8-1.9-5.3-4.4h-8.2v7.9H-0.2V7.4h7.2v-3h1.9v3H13v-3h1.9v3H19v-3h1.9v3H25v-3h1.9v3h7.2v9.2c2.1,0.4,3.9,1.6,5.2,3.2
	l6.1,7.3c0.6,0.7,1.1,0.8,2,0.8c0.5,0,1,0,1.5,0.1c3.7,0.4,6.5,1.9,8.3,4.1c2.2,2.8,2.9,6.5,2.5,10L59.6,43H52.8L52.8,43z M9.8,22.5
	H24h0.9v0.9v14.2v0.9H24H9.8H8.9v-0.9V23.5v-0.9H9.8L9.8,22.5z M22,24.4l-4.9,7.8L13.5,27L12,28l4.4,6.4l0.8,1.2l0.8-1.2l5.1-8.1
	v10.4H10.8V24.4H22z"/>
</svg>
