<?xml version="1.0" encoding="utf-8"?>
<!-- Generator: Adobe Illustrator 22.0.0, SVG Export Plug-In . SVG Version: 6.00 Build 0)  -->
<svg version="1.1" id="Layer_1" xmlns="http://www.w3.org/2000/svg" xmlns:xlink="http://www.w3.org/1999/xlink" x="0px" y="0px"
	 viewBox="0 0 17 17" style="enable-background:new 0 0 17 17;" xml:space="preserve">
<style type="text/css">
	.st0{fill:#FFFFFF;}
</style>
<path class="st0" d="M2.8,12.5c-1,0-1.8,0.8-1.8,1.8S1.8,16,2.8,16s1.8-0.8,1.8-1.8S3.7,12.5,2.8,12.5z M2.8,15
	C2.3,15,2,14.7,2,14.3s0.3-0.8,0.8-0.8s0.8,0.3,0.8,0.8S3.2,15,2.8,15z M11.3,12.5c-1,0-1.8,0.8-1.8,1.8s0.8,1.8,1.8,1.8
	s1.8-0.8,1.8-1.8S12.2,12.5,11.3,12.5z M11.3,15c-0.4,0-0.8-0.3-0.8-0.8s0.3-0.8,0.8-0.8s0.8,0.3,0.8,0.8S11.7,15,11.3,15z M13.4,2
	l-0.3,2H-0.1L1,12H13l1-7.5L14.2,3H17V2L13.4,2z M12.9,5l-0.1,1H1.2L1.1,5H12.9z M1.9,11L1.4,7h11.3l-0.6,4H1.9z"/>
</svg>
